<svg width="1206" height="490" viewBox="0 0 1206 490" fill="none" xmlns="http://www.w3.org/2000/svg">
<ellipse cx="901.006" cy="325.25" rx="301.155" ry="348.169" transform="rotate(15 901.006 325.25)" fill="#3153CB"/>
<path d="M1043.15 377.741C1044.38 377.804 1045.6 377.439 1046.64 376.694C1047.68 375.949 1048.5 374.861 1048.97 373.576C1049.45 372.291 1049.57 370.872 1049.3 369.511C1049.04 368.15 1048.41 366.913 1047.51 365.968C1047.36 365.287 1047.25 364.798 1047.1 364.117C1048.27 360.735 1050.32 357.828 1052.98 355.767C1055.63 353.707 1058.77 352.588 1061.99 352.554C1065.21 352.52 1068.36 353.572 1071.05 355.575C1073.74 357.578 1075.83 360.442 1077.07 363.798C1084.2 382.641 1093.43 402.147 1088.84 422.901C1119.16 350.366 1108.85 260.14 1064.04 198.109C1051.65 190.407 1041.61 176.724 1039 160.837C1045.13 163.181 1052.77 157.553 1048.16 150.265C1046.17 147.479 1044.15 144.716 1042.15 141.93C1065.44 113.938 1093.18 157.931 1067.55 195.711C1075.94 207.577 1083.2 220.4 1089.22 233.97C1087.83 219.56 1089.49 204.984 1094.06 191.439C1098.7 178.816 1107.39 168.185 1115.04 157.273C1124.35 143.977 1143.49 150.111 1144.75 166.984C1136.16 170.169 1135.04 184.168 1144.87 186.084C1142.29 217.474 1124.12 246.321 1099.1 260.087C1108.34 289.353 1111.95 320.506 1109.69 351.469C1114.1 315.282 1148.52 306.5 1172.57 292.118C1174.1 291.01 1175.89 290.428 1177.71 290.445C1179.52 290.461 1181.3 291.075 1182.81 292.21C1184.33 293.346 1185.52 294.955 1186.24 296.841C1186.96 298.726 1187.17 300.808 1186.86 302.83C1183.54 304.354 1180.36 306.246 1177.38 308.479C1175.98 309.542 1174.9 311.067 1174.3 312.846C1173.7 314.626 1173.6 316.572 1174.01 318.418C1174.43 320.263 1175.34 321.919 1176.62 323.157C1177.91 324.395 1179.5 325.155 1181.18 325.333C1169.05 359.204 1137.7 381.949 1105.51 381.821C1102.41 396.996 1097.93 411.768 1092.13 425.897H1044.34C1044.17 425.298 1044.02 424.68 1043.86 424.08C1048.29 424.394 1052.73 424.095 1057.09 423.191C1045.38 407.552 1036.33 399.574 1043.14 377.741L1043.15 377.741Z" fill="#18369F"/>
<path d="M725.282 388.364C724.475 388.406 723.675 388.166 722.992 387.677C722.308 387.187 721.774 386.473 721.463 385.629C721.151 384.785 721.075 383.854 721.247 382.96C721.419 382.067 721.83 381.255 722.424 380.634C722.523 380.187 722.595 379.866 722.694 379.419C721.921 377.198 720.579 375.289 718.84 373.937C717.101 372.584 715.045 371.849 712.934 371.827C710.824 371.804 708.755 372.495 706.994 373.81C705.233 375.126 703.859 377.006 703.049 379.21C698.375 391.581 692.325 404.388 695.334 418.014C675.461 370.391 682.219 311.151 711.589 270.424C719.707 265.367 726.287 256.383 728 245.952C723.982 247.491 718.973 243.796 721.994 239.011C723.303 237.182 724.625 235.367 725.935 233.538C710.673 215.16 692.488 244.044 709.287 268.85C703.792 276.64 699.032 285.059 695.084 293.969C695.996 284.508 694.908 274.937 691.91 266.045C688.872 257.757 683.177 250.777 678.162 243.612C672.064 234.882 659.514 238.91 658.694 249.988C664.321 252.079 665.052 261.271 658.615 262.529C660.301 283.138 672.209 302.078 688.61 311.116C682.553 330.331 680.188 350.785 681.672 371.115C678.778 347.356 656.222 341.59 640.456 332.147C639.453 331.419 638.284 331.037 637.092 331.048C635.9 331.059 634.737 331.462 633.744 332.207C632.751 332.953 631.971 334.009 631.5 335.248C631.029 336.486 630.887 337.852 631.091 339.18C633.267 340.18 635.349 341.423 637.308 342.889C638.226 343.586 638.93 344.588 639.325 345.756C639.72 346.925 639.785 348.202 639.512 349.414C639.239 350.626 638.642 351.713 637.801 352.526C636.961 353.339 635.919 353.838 634.817 353.954C642.764 376.193 663.31 391.126 684.412 391.042C686.439 401.006 689.378 410.705 693.179 419.982H724.498C724.61 419.588 724.711 419.182 724.812 418.789C721.913 418.995 719.003 418.799 716.146 418.205C723.816 407.937 729.747 402.699 725.283 388.364L725.282 388.364Z" fill="#18369F"/>
<ellipse cx="912" cy="424.418" rx="244" ry="12.3242" fill="#18369F"/>
<path d="M1097.85 372.757H707.153C698.798 372.757 692 366.123 692 357.969V312.077H1113V357.969C1113 366.123 1106.2 372.757 1097.85 372.757Z" fill="#E6E6E6"/>
<path d="M953.065 356.112H853.433V425.565H953.065V356.112Z" fill="#E6E6E6"/>
<path d="M959.058 416.792H847.44V425.565H959.058V416.792Z" fill="#E6E6E6"/>
<path d="M1112.63 331.451H692V98.1488C692 92.5529 696.665 88 702.399 88H1102.23C1107.96 88 1112.63 92.5529 1112.63 98.1488V331.451Z" fill="#3F3D56"/>
<path d="M1102.51 98.6006H701.739V318.657H1102.51V98.6006Z" fill="#F9FAFF"/>
<path d="M789.353 229.76C792.421 227.287 796.215 226.826 797.827 228.732C799.44 230.637 798.261 234.186 795.192 236.66C793.98 237.665 792.539 238.372 790.99 238.722L777.857 249.042L773.026 242.925L786.485 233.4C787.13 231.981 788.113 230.733 789.353 229.76H789.353Z" fill="#FFB6B6"/>
<path d="M713.449 253.046C713.442 252.59 713.447 248.609 716.467 246.092C719.936 243.202 724.831 244.372 726.548 244.782C730.515 245.73 730.84 247.391 734.565 249.097C741.534 252.289 732.802 250.655 736.949 249.631C738.384 249.277 759.033 247.88 764.173 244.792C774.169 238.787 780.981 235.146 780.981 235.146L785.433 243.837C785.433 243.837 778.995 252.575 769.933 259.047C760.638 265.687 755.99 269.007 748.927 270.289C748.319 270.4 733.359 272.893 721.311 264.108C718.563 262.104 713.527 258.432 713.449 253.046L713.449 253.046Z" fill="#3A61EC"/>
<path d="M727.261 230.943C735.828 230.943 742.773 224.165 742.773 215.805C742.773 207.444 735.828 200.667 727.261 200.667C718.695 200.667 711.75 207.444 711.75 215.805C711.75 224.165 718.695 230.943 727.261 230.943Z" fill="#FFB6B6"/>
<path d="M848.74 317.509L832.766 301.55L824.52 309.945L836.421 325.246L848.226 326.564L848.74 317.509Z" fill="#FFB6B6"/>
<path d="M757.525 287.583C758.459 287.659 761.429 288.239 764.267 286.716C766.203 285.676 767.197 284.129 767.532 283.637C771.694 277.537 787.67 268.023 802.008 267.438C805.255 267.305 807.392 267.672 809.334 268.661C812.089 270.062 813.188 272.069 816.684 276.771C818.596 279.343 820.711 281.766 822.646 284.322C833.975 299.283 838.269 300.458 837.83 305.254C837.343 310.576 831.462 315.625 827.553 315.043C825.953 314.804 825.333 313.718 823.194 311.518C816.923 305.07 814.329 306.262 809.864 301.323C804.651 295.557 805.334 290.776 802.614 290.591C800.092 290.42 799.021 294.498 793.637 299.917C791.173 302.396 789.419 303.533 784.074 307.152C763.26 321.244 762.928 322.234 758.727 323.358C756.89 323.85 743.846 327.34 739.199 321.786C731.928 313.095 749.106 286.9 757.525 287.583V287.583Z" fill="#2F2E41"/>
<path d="M843.856 321.115C845.031 320.6 846.405 319.998 846.847 318.614C847.146 317.677 846.974 316.522 846.356 315.724C845.642 314.803 844.587 314.681 844.63 314.518C844.695 314.27 847.191 314.367 849.931 315.313C850.448 315.491 852.791 316.327 855.771 318.597C858.159 320.416 857.838 320.781 859.335 321.83C863.931 325.05 868.242 322.512 870.728 325.532C871.688 326.697 872.098 328.352 871.694 329.69C870.883 332.376 866.938 333.301 864.782 333.778C859.59 334.928 855.66 333.989 851.557 333.314C837.601 331.019 829.76 333.11 828.711 329.954C828.512 329.357 828.835 329.408 829.911 325.026C830.973 320.7 830.938 319.513 831.843 319.166C833.204 318.645 834.118 321.016 837.548 321.828C840.587 322.547 843.095 321.448 843.856 321.115H843.856Z" fill="#2F2E41"/>
<path d="M820.34 369.715L816.304 347.755L804.651 350.182L805.695 369.366L814.705 376.926L820.34 369.715Z" fill="#FFB6B6"/>
<path d="M762.083 294.964C762.812 295.539 764.935 297.647 768.16 297.941C770.361 298.142 772.073 297.407 772.633 297.184C779.588 294.417 798.281 295.3 810.481 302.673C813.244 304.342 814.801 305.817 815.84 307.7C817.313 310.369 817.068 312.632 817.255 318.438C817.357 321.614 817.713 324.779 817.844 327.954C818.609 346.542 821.487 349.867 818.364 353.596C814.898 357.733 807.127 358.687 804.228 356.063C803.041 354.988 803.153 353.75 802.649 350.758C801.17 341.986 798.338 341.55 797.485 335.016C796.49 327.389 799.805 323.806 797.661 322.163C795.673 320.639 792.439 323.427 784.867 324.96C781.402 325.661 779.296 325.641 772.791 325.706C747.46 325.96 746.616 326.597 742.493 325.225C740.69 324.625 727.889 320.365 727.239 313.223C726.224 302.046 755.509 289.786 762.083 294.964H762.083Z" fill="#2F2E41"/>
<path d="M814.224 370.022C815.493 370.24 816.976 370.495 818.138 369.591C818.924 368.98 819.446 367.93 819.394 366.931C819.334 365.778 818.53 365.099 818.659 364.988C818.856 364.818 820.866 366.266 822.589 368.55C822.915 368.981 824.372 370.957 825.532 374.469C826.461 377.282 825.985 377.408 826.62 379.097C828.571 384.28 833.598 384.542 833.918 388.403C834.042 389.894 833.428 391.487 832.324 392.373C830.107 394.151 826.311 392.755 824.253 391.968C819.295 390.074 816.583 387.144 813.576 384.337C803.349 374.79 795.659 372.222 796.606 369.036C796.785 368.433 797.023 368.652 800.435 365.616C803.802 362.619 804.457 361.617 805.404 361.826C806.831 362.141 806.223 364.604 808.594 367.155C810.695 369.416 813.402 369.881 814.224 370.022Z" fill="#2F2E41"/>
<path d="M729.376 218.699C729.98 216.591 729.221 215.823 729.994 214.876C729.995 214.876 730.306 214.495 733.087 213.468C732.266 208.821 732.881 208.036 732.881 208.036C733.589 207.13 735.007 206.911 735.973 207.03C738.015 207.28 738.377 209.082 739.684 209.042C741.489 208.986 743.654 205.459 742.982 202.402C742.434 199.909 740.07 198.057 739.478 198.378C738.89 198.697 736.775 197.292 735.973 197.574C735.425 197.766 732.847 197.51 732.262 197.775C731.624 198.064 729.795 199.864 729.621 199.637C728.406 198.061 728.432 197.511 727.727 197.171C726.478 196.569 725.12 197.682 722.779 198.781C717.962 201.042 716.552 199.693 714.327 201.598C713.203 202.559 712.6 204.398 711.441 208.036C709.819 213.123 709.008 215.667 709.792 218.095C710.59 220.572 711.766 220.033 713.502 223.528C715.435 227.417 714.769 229.678 716.595 230.569C718.006 231.258 720.274 230.82 721.13 229.563C722.596 227.412 718.807 224.503 720.099 221.113C720.893 219.032 723.34 217.455 724.841 217.894C726.538 218.391 726.663 221.36 727.727 221.314C728.638 221.275 729.271 219.066 729.376 218.699H729.376Z" fill="#2F2E41"/>
<path d="M717.625 233.185C720.8 229.711 733.729 233.306 734.942 238.818C735.441 241.085 733.599 242.042 734.118 244.653C734.877 248.471 739.174 248.21 742.364 252.097C746.892 257.615 742.227 263.008 747.311 272.216C748.398 274.184 749.314 275.842 751.228 277.447C755.622 281.13 759.711 279.867 761.948 283.282C763.621 285.835 762.934 288.983 762.773 289.72C762.113 292.743 760.323 293.48 759.062 295.957C756.964 300.078 759.34 303.104 759.474 308.028C759.643 314.19 756.288 322.73 749.579 325.532C742.042 328.68 732.951 323.466 728.552 318.289C725.927 315.2 725.165 312.35 724.016 308.833C718.884 293.114 715.984 294.535 712.059 282.075C707.572 267.83 706.69 251.141 712.059 245.86C712.771 245.16 714.729 243.542 715.976 240.629C717.654 236.709 716.205 234.74 717.625 233.185L717.625 233.185Z" fill="#3A61EC"/>
<path d="M764.527 314.04C766.988 317.092 767.369 320.805 765.379 322.333C763.389 323.861 759.781 322.626 757.32 319.573C756.32 318.366 755.63 316.944 755.308 315.424L745.048 302.366L750.35 298.419L760.867 311.156C762.305 311.818 763.561 312.807 764.527 314.04H764.527Z" fill="#FFB6B6"/>
<path d="M726.952 246.422C727.408 246.323 731.403 245.514 734.543 247.886C738.151 250.611 737.976 255.527 737.915 257.251C737.773 261.234 736.174 261.884 735.222 265.79C733.442 273.1 736.832 279.892 738.705 283.645C739.353 284.944 741.436 288.919 745.582 293.2C753.645 301.525 760.839 305.906 760.839 305.906L753.11 312.611C753.11 312.611 740.799 308.949 732.458 301.612C723.901 294.086 710.742 267.458 708.014 260.971C707.779 260.413 711.107 269.494 717.46 256.19C718.91 253.156 721.565 247.596 726.952 246.422H726.952Z" fill="#3A61EC"/>
<path d="M1013.9 204.998H867.306C863.773 204.994 860.386 203.625 857.887 201.191C855.389 198.757 853.984 195.456 853.98 192.014V138.948C853.984 135.506 855.389 132.205 857.887 129.771C860.386 127.337 863.773 125.968 867.306 125.964H1013.9C1017.43 125.968 1020.82 127.337 1023.32 129.771C1025.82 132.205 1027.22 135.506 1027.23 138.948V192.014C1027.22 195.456 1025.82 198.757 1023.32 201.191C1020.82 203.625 1017.43 204.994 1013.9 204.998Z" fill="#D0E6F9"/>
<path d="M914.046 236.784H801.869C798.343 236.78 794.962 235.4 792.469 232.946C789.976 230.492 788.574 227.164 788.57 223.694V204.343C788.574 200.873 789.976 197.546 792.469 195.092C794.963 192.638 798.343 191.257 801.869 191.253H914.046C917.572 191.257 920.952 192.638 923.445 195.092C925.939 197.546 927.341 200.873 927.345 204.343V223.694C927.341 227.164 925.939 230.492 923.445 232.946C920.952 235.4 917.572 236.78 914.046 236.784Z" fill="#F2F2F2"/>
<path d="M867.091 225.616H848.824C847.847 225.615 846.911 225.246 846.22 224.591C845.53 223.937 845.142 223.049 845.141 222.123V205.914C845.142 204.988 845.53 204.1 846.22 203.445C846.911 202.79 847.847 202.422 848.824 202.421H867.091C868.068 202.422 869.004 202.79 869.694 203.445C870.385 204.1 870.773 204.988 870.774 205.914V222.123C870.773 223.049 870.385 223.937 869.694 224.591C869.004 225.246 868.068 225.615 867.091 225.616Z" fill="#D7D7D7"/>
<path d="M898.968 225.616H881.33C880.387 225.615 879.484 225.246 878.817 224.591C878.15 223.937 877.775 223.049 877.774 222.123V205.914C877.775 204.988 878.15 204.1 878.817 203.445C879.484 202.79 880.387 202.422 881.33 202.421H898.968C899.911 202.422 900.815 202.79 901.481 203.445C902.148 204.1 902.523 204.988 902.524 205.914V222.123C902.523 223.049 902.148 223.937 901.481 224.591C900.815 225.246 899.911 225.615 898.968 225.616Z" fill="#D7D7D7"/>
<path d="M947.97 156.89H924.399C923.773 156.89 923.174 156.664 922.732 156.261C922.29 155.859 922.042 155.312 922.042 154.743C922.042 154.173 922.29 153.627 922.732 153.224C923.174 152.821 923.773 152.595 924.399 152.595H947.97C948.595 152.595 949.195 152.821 949.637 153.224C950.079 153.627 950.327 154.173 950.327 154.743C950.327 155.312 950.079 155.859 949.637 156.261C949.195 156.664 948.595 156.89 947.97 156.89Z" fill="#9FC9EE"/>
<path d="M997.522 169.776H924.346C923.735 169.776 923.149 169.55 922.717 169.147C922.284 168.744 922.042 168.198 922.042 167.629C922.042 167.059 922.284 166.513 922.717 166.11C923.149 165.707 923.735 165.481 924.346 165.481H997.522C998.133 165.481 998.719 165.707 999.151 166.11C999.584 166.513 999.826 167.059 999.826 167.629C999.826 168.198 999.584 168.744 999.151 169.147C998.719 169.55 998.133 169.776 997.522 169.776Z" fill="white"/>
<path d="M997.522 179.776H924.346C923.735 179.776 923.149 179.55 922.717 179.147C922.284 178.744 922.042 178.198 922.042 177.629C922.042 177.059 922.284 176.513 922.717 176.11C923.149 175.707 923.735 175.481 924.346 175.481H997.522C998.133 175.481 998.719 175.707 999.151 176.11C999.584 176.513 999.826 177.059 999.826 177.629C999.826 178.198 999.584 178.744 999.151 179.147C998.719 179.55 998.133 179.776 997.522 179.776Z" fill="white"/>
<path d="M1065.69 291H919.308C915.779 290.997 912.397 289.836 909.902 287.773C907.407 285.709 906.004 282.911 906 279.993V235.007C906.004 232.089 907.407 229.291 909.902 227.228C912.397 225.164 915.78 224.004 919.308 224H1065.69C1069.22 224.004 1072.6 225.164 1075.1 227.228C1077.59 229.291 1079 232.089 1079 235.007V279.993C1079 282.911 1077.59 285.709 1075.1 287.773C1072.6 289.836 1069.22 290.997 1065.69 291Z" fill="#F9F6E2"/>
<path d="M1069.3 211.871H991.26C990.767 211.865 990.277 211.805 989.799 211.69C988.371 211.355 987.101 210.56 986.194 209.434C985.287 208.307 984.795 206.914 984.8 205.481V179.596C984.803 177.903 985.493 176.28 986.721 175.083C987.948 173.887 989.612 173.214 991.347 173.213H1069.3C1070.35 173.21 1071.38 173.457 1072.31 173.933C1072.68 174.121 1073.03 174.344 1073.36 174.6C1074.14 175.193 1074.76 175.951 1075.19 176.817C1075.62 177.683 1075.85 178.634 1075.84 179.596V205.481C1075.84 207.175 1075.15 208.799 1073.92 209.997C1072.7 211.195 1071.03 211.869 1069.3 211.871Z" fill="#F2F2F2"/>
<path d="M1014.95 205.195H996.683C995.707 205.194 994.77 204.826 994.08 204.171C993.389 203.516 993.001 202.628 993 201.702V185.493C993.001 184.567 993.389 183.679 994.08 183.025C994.77 182.37 995.707 182.001 996.683 182H1014.95C1015.93 182.001 1016.86 182.37 1017.55 183.025C1018.24 183.679 1018.63 184.567 1018.63 185.493V201.702C1018.63 202.628 1018.24 203.516 1017.55 204.171C1016.86 204.826 1015.93 205.194 1014.95 205.195Z" fill="#D7D7D7"/>
<path d="M1046.83 205.195H1029.19C1028.25 205.194 1027.34 204.826 1026.68 204.171C1026.01 203.516 1025.63 202.628 1025.63 201.702V185.493C1025.63 184.567 1026.01 183.679 1026.68 183.025C1027.34 182.37 1028.25 182.001 1029.19 182H1046.83C1047.77 182.001 1048.67 182.37 1049.34 183.025C1050.01 183.679 1050.38 184.567 1050.38 185.493V201.702C1050.38 202.628 1050.01 203.516 1049.34 204.171C1048.67 204.826 1047.77 205.194 1046.83 205.195Z" fill="#D7D7D7"/>
<path d="M996.277 245.515H971.786C971.478 245.516 971.174 245.461 970.889 245.353C970.605 245.245 970.347 245.087 970.129 244.887C969.912 244.688 969.739 244.451 969.622 244.19C969.504 243.93 969.443 243.65 969.443 243.368C969.443 243.085 969.504 242.806 969.622 242.545C969.739 242.284 969.912 242.047 970.129 241.848C970.347 241.648 970.605 241.49 970.889 241.382C971.174 241.275 971.478 241.22 971.786 241.22H996.277C996.897 241.221 997.491 241.448 997.929 241.85C998.367 242.253 998.612 242.799 998.612 243.368C998.612 243.937 998.367 244.482 997.929 244.885C997.491 245.288 996.897 245.514 996.277 245.515Z" fill="#E9E1AC"/>
<path d="M1051.94 254.965H971.804C971.178 254.965 970.577 254.739 970.135 254.336C969.692 253.933 969.443 253.387 969.443 252.818C969.443 252.248 969.692 251.702 970.135 251.299C970.577 250.896 971.178 250.67 971.804 250.67H1051.94C1052.56 250.67 1053.17 250.896 1053.61 251.299C1054.05 251.702 1054.3 252.248 1054.3 252.818C1054.3 253.387 1054.05 253.933 1053.61 254.336C1053.17 254.739 1052.56 254.965 1051.94 254.965Z" fill="white"/>
<path d="M1051.5 266.155H971.361C971.051 266.155 970.744 266.088 970.457 265.958C970.171 265.829 969.911 265.639 969.691 265.4C969.472 265.16 969.298 264.876 969.18 264.564C969.061 264.251 969 263.916 969 263.577C969 263.239 969.061 262.904 969.18 262.591C969.298 262.279 969.472 261.994 969.691 261.755C969.911 261.516 970.171 261.326 970.457 261.196C970.744 261.067 971.051 261 971.361 261H1051.5C1052.12 261 1052.72 261.272 1053.16 261.755C1053.61 262.238 1053.86 262.894 1053.86 263.577C1053.86 264.261 1053.61 264.916 1053.16 265.4C1052.72 265.883 1052.12 266.155 1051.5 266.155Z" fill="white"/>
<path d="M1051.5 276.463H971.364C971.054 276.464 970.747 276.409 970.46 276.301C970.173 276.193 969.912 276.035 969.693 275.835C969.473 275.636 969.299 275.399 969.18 275.138C969.061 274.878 969 274.598 969 274.316C969 274.033 969.061 273.754 969.18 273.493C969.299 273.232 969.473 272.995 969.693 272.796C969.912 272.596 970.173 272.438 970.46 272.33C970.747 272.223 971.054 272.168 971.364 272.168H1051.5C1052.12 272.169 1052.72 272.396 1053.17 272.798C1053.61 273.201 1053.86 273.747 1053.86 274.316C1053.86 274.885 1053.61 275.43 1053.17 275.833C1052.72 276.236 1052.12 276.462 1051.5 276.463Z" fill="white"/>
<path d="M929 240H957V268H929V240Z" fill="#F5DE19"/>
<path d="M947.809 261.875C948.048 262.36 948.418 262.767 948.878 263.05C949.338 263.333 949.869 263.481 950.409 263.475C951.499 263.475 952.196 262.93 952.196 262.175C952.196 261.275 951.48 260.953 950.28 260.428L949.622 260.146C947.722 259.337 946.462 258.324 946.462 256.182C946.462 254.209 947.962 252.706 950.315 252.706C951.077 252.651 951.838 252.822 952.503 253.196C953.169 253.571 953.709 254.133 954.057 254.813L952 256.128C951.866 255.791 951.633 255.503 951.331 255.301C951.029 255.1 950.674 254.995 950.311 255C950.153 254.984 949.993 255.002 949.842 255.051C949.691 255.1 949.551 255.181 949.433 255.287C949.314 255.393 949.219 255.522 949.154 255.667C949.088 255.812 949.054 255.969 949.052 256.128C949.052 256.917 949.541 257.237 950.67 257.728L951.328 258.01C953.564 258.969 954.828 259.946 954.828 262.143C954.828 264.512 952.967 265.81 950.468 265.81C949.494 265.872 948.523 265.651 947.673 265.174C946.822 264.696 946.127 263.983 945.673 263.119L947.809 261.875ZM938.514 262.103C938.927 262.836 939.303 263.456 940.207 263.456C941.071 263.456 941.617 263.118 941.617 261.803V252.856H944.248V261.838C944.248 264.562 942.648 265.802 940.319 265.802C939.496 265.847 938.678 265.642 937.974 265.214C937.269 264.785 936.711 264.154 936.372 263.402L938.514 262.103Z" fill="black"/>
<g clip-path="url(#clip0_0_1)">
<path d="M890.343 139.01C880.973 139.01 881.558 143.09 881.558 143.09L881.569 147.316H890.51V148.585H878.017C878.017 148.585 872.021 147.903 872.021 157.394C872.021 166.886 877.254 166.549 877.254 166.549H880.378V162.145C880.378 162.145 880.209 156.891 885.528 156.891H894.396C894.396 156.891 899.379 156.972 899.379 152.056V143.929C899.379 143.929 900.136 139.01 890.343 139.01ZM885.413 141.853C885.624 141.852 885.833 141.894 886.029 141.975C886.224 142.056 886.401 142.175 886.551 142.325C886.7 142.475 886.819 142.653 886.899 142.849C886.98 143.045 887.022 143.255 887.021 143.468C887.022 143.68 886.98 143.89 886.899 144.086C886.819 144.282 886.7 144.46 886.551 144.61C886.401 144.76 886.224 144.879 886.029 144.96C885.833 145.041 885.624 145.083 885.413 145.083C885.202 145.083 884.992 145.041 884.797 144.96C884.602 144.879 884.424 144.76 884.275 144.61C884.126 144.46 884.007 144.282 883.926 144.086C883.845 143.89 883.804 143.68 883.804 143.468C883.804 143.255 883.845 143.045 883.926 142.849C884.007 142.653 884.126 142.475 884.275 142.325C884.424 142.175 884.602 142.056 884.797 141.975C884.992 141.894 885.202 141.852 885.413 141.853Z" fill="url(#paint0_linear_0_1)"/>
<path d="M890.609 175.873C899.98 175.873 899.395 171.794 899.395 171.794L899.384 167.567H890.442V166.299H902.936C902.936 166.299 908.932 166.981 908.932 157.489C908.932 147.998 903.698 148.334 903.698 148.334H900.575V152.739C900.575 152.739 900.743 157.993 895.425 157.993H886.556C886.556 157.993 881.573 157.912 881.573 162.827V170.955C881.573 170.955 880.817 175.873 890.609 175.873H890.609ZM895.54 173.031C895.329 173.031 895.119 172.99 894.924 172.909C894.729 172.828 894.551 172.709 894.402 172.559C894.253 172.409 894.134 172.231 894.053 172.035C893.973 171.839 893.931 171.628 893.931 171.416C893.931 171.204 893.973 170.994 894.053 170.798C894.134 170.602 894.253 170.424 894.402 170.274C894.551 170.124 894.729 170.005 894.924 169.924C895.119 169.843 895.329 169.801 895.54 169.801C895.751 169.801 895.961 169.843 896.156 169.924C896.351 170.005 896.528 170.124 896.678 170.274C896.827 170.424 896.946 170.602 897.027 170.798C897.107 170.994 897.149 171.204 897.149 171.416C897.149 171.628 897.107 171.838 897.027 172.034C896.946 172.23 896.827 172.409 896.678 172.559C896.528 172.709 896.351 172.827 896.156 172.909C895.961 172.99 895.751 173.031 895.54 173.031V173.031Z" fill="url(#paint1_linear_0_1)"/>
</g>
<path d="M16.912 231.8C14.56 231.8 12.544 231.427 10.864 230.68C9.184 229.933 7.784 228.888 6.664 227.544C5.58133 226.2 4.77867 224.613 4.256 222.784C3.77067 220.955 3.528 218.939 3.528 216.736V210.52C3.528 208.355 3.77067 206.357 4.256 204.528C4.77867 202.661 5.58133 201.056 6.664 199.712C7.784 198.368 9.184 197.323 10.864 196.576C12.544 195.829 14.56 195.456 16.912 195.456C20.2347 195.456 22.8853 196.184 24.864 197.64C26.88 199.096 28.3173 201.056 29.176 203.52H38.528V191.984H45.584V244.064H38.528V223.68H29.232C28.3733 226.181 26.936 228.16 24.92 229.616C22.9413 231.072 20.272 231.8 16.912 231.8ZM16.912 201.672C14.56 201.672 12.8613 202.493 11.816 204.136C10.808 205.779 10.304 208.187 10.304 211.36V215.896C10.304 219.069 10.808 221.477 11.816 223.12C12.8613 224.763 14.56 225.584 16.912 225.584C19.264 225.584 20.944 224.763 21.952 223.12C22.9973 221.477 23.52 219.069 23.52 215.896V211.36C23.52 208.187 22.9973 205.779 21.952 204.136C20.944 202.493 19.264 201.672 16.912 201.672ZM30.296 209.568V217.632H38.528V209.568H30.296ZM59.2568 226.984H93.6408V244.12H59.2568V226.984ZM66.2008 238.52H86.6968V232.584H66.2008V238.52ZM100.305 218.528V224.128H52.5928V218.528H100.305ZM59.2568 215.672V201.896H86.4168V198.984H59.0888V193.44H93.3608V207.216H66.2008V210.128H94.2568V215.672H59.2568ZM144.89 203.52H151.722V209.68H144.89V223.12H137.834V191.984H144.89V203.52ZM129.098 245.632C126.708 245.632 124.524 245.389 122.546 244.904C120.604 244.419 118.924 243.728 117.506 242.832C116.124 241.973 115.042 240.928 114.258 239.696C113.511 238.464 113.138 237.101 113.138 235.608V233.368C113.138 231.875 113.511 230.512 114.258 229.28C115.042 228.048 116.124 227.003 117.506 226.144C118.924 225.248 120.604 224.557 122.546 224.072C124.524 223.587 126.708 223.344 129.098 223.344C131.487 223.344 133.652 223.587 135.594 224.072C137.572 224.557 139.252 225.248 140.634 226.144C142.052 227.003 143.135 228.048 143.882 229.28C144.666 230.512 145.058 231.875 145.058 233.368V235.608C145.058 237.101 144.666 238.464 143.882 239.696C143.135 240.928 142.052 241.973 140.634 242.832C139.252 243.728 137.572 244.419 135.594 244.904C133.652 245.389 131.487 245.632 129.098 245.632ZM129.098 229.112C127.679 229.112 126.41 229.261 125.29 229.56C124.17 229.821 123.218 230.176 122.434 230.624C121.687 231.072 121.108 231.576 120.698 232.136C120.287 232.696 120.082 233.256 120.082 233.816V235.16C120.082 235.72 120.287 236.28 120.698 236.84C121.108 237.4 121.687 237.904 122.434 238.352C123.218 238.8 124.17 239.155 125.29 239.416C126.41 239.715 127.679 239.864 129.098 239.864C130.516 239.864 131.786 239.715 132.906 239.416C134.026 239.155 134.959 238.8 135.706 238.352C136.49 237.904 137.087 237.4 137.498 236.84C137.908 236.28 138.114 235.72 138.114 235.16V233.816C138.114 233.256 137.908 232.696 137.498 232.136C137.087 231.576 136.49 231.072 135.706 230.624C134.959 230.176 134.026 229.821 132.906 229.56C131.786 229.261 130.516 229.112 129.098 229.112ZM130.217 219.76H105.578V194.392H112.522V201.84H123.274V194.392H130.217V219.76ZM112.522 213.88H123.274V207.72H112.522V213.88ZM173.626 196.912H184.882V202.848H155.09V196.912H166.57V191.312H173.626V196.912ZM195.858 205.032H202.69V211.192H195.858V224.576H188.802V191.984H195.858V205.032ZM162.65 226.928H195.858V244.736H188.802V232.864H162.65V226.928ZM170.098 224.072C168.12 224.072 166.365 223.848 164.834 223.4C163.304 222.915 162.016 222.28 160.97 221.496C159.925 220.675 159.122 219.723 158.562 218.64C158.002 217.557 157.722 216.4 157.722 215.168V213.376C157.722 212.144 158.002 210.987 158.562 209.904C159.122 208.821 159.925 207.888 160.97 207.104C162.016 206.283 163.304 205.648 164.834 205.2C166.365 204.715 168.12 204.472 170.098 204.472C172.04 204.472 173.776 204.715 175.306 205.2C176.874 205.648 178.181 206.283 179.226 207.104C180.272 207.888 181.074 208.821 181.634 209.904C182.194 210.987 182.474 212.144 182.474 213.376V215.168C182.474 216.4 182.194 217.557 181.634 218.64C181.074 219.723 180.272 220.675 179.226 221.496C178.181 222.28 176.874 222.915 175.306 223.4C173.776 223.848 172.04 224.072 170.098 224.072ZM170.098 210.016C168.232 210.016 166.813 210.427 165.842 211.248C164.872 212.032 164.386 212.853 164.386 213.712V214.832C164.386 215.691 164.872 216.531 165.842 217.352C166.813 218.136 168.232 218.528 170.098 218.528C171.965 218.528 173.384 218.136 174.354 217.352C175.325 216.531 175.81 215.691 175.81 214.832V213.712C175.81 212.853 175.325 212.032 174.354 211.248C173.384 210.427 171.965 210.016 170.098 210.016ZM252.091 225.584C252.464 223.755 252.763 222.037 252.987 220.432C253.211 218.789 253.398 217.109 253.547 215.392L224.707 215.784L224.539 209.68L253.771 209.288C253.808 208.803 253.827 208.299 253.827 207.776C253.827 207.253 253.827 206.712 253.827 206.152V202.288H225.491V196.184H260.827V204.304C260.827 206.843 260.79 209.12 260.715 211.136C260.64 213.115 260.528 214.963 260.379 216.68C260.23 218.397 260.024 220.04 259.763 221.608C259.539 223.139 259.278 224.744 258.979 226.424L252.091 225.584ZM235.907 231.52V220.32H242.963V231.52H267.211V237.512H219.499V231.52H235.907ZM313.756 222.784H306.7V191.984H313.756V222.784ZM297.628 245.632C295.313 245.632 293.166 245.408 291.188 244.96C289.209 244.512 287.492 243.84 286.036 242.944C284.58 242.085 283.422 241.021 282.564 239.752C281.742 238.52 281.332 237.12 281.332 235.552V233.088C281.332 231.52 281.742 230.12 282.564 228.888C283.422 227.619 284.58 226.555 286.036 225.696C287.492 224.8 289.209 224.128 291.188 223.68C293.166 223.232 295.313 223.008 297.628 223.008C299.942 223.008 302.089 223.232 304.068 223.68C306.046 224.128 307.764 224.8 309.22 225.696C310.676 226.555 311.814 227.619 312.636 228.888C313.494 230.12 313.924 231.52 313.924 233.088V235.552C313.924 237.12 313.494 238.52 312.636 239.752C311.814 241.021 310.676 242.085 309.22 242.944C307.764 243.84 306.046 244.512 304.068 244.96C302.089 245.408 299.942 245.632 297.628 245.632ZM297.628 228.776C296.396 228.776 295.22 228.907 294.1 229.168C292.98 229.429 291.99 229.784 291.132 230.232C290.273 230.643 289.582 231.147 289.06 231.744C288.537 232.304 288.276 232.92 288.276 233.592V235.048C288.276 235.72 288.537 236.336 289.06 236.896C289.582 237.493 290.273 237.997 291.132 238.408C291.99 238.856 292.98 239.211 294.1 239.472C295.22 239.733 296.396 239.864 297.628 239.864C298.86 239.864 300.036 239.733 301.156 239.472C302.276 239.211 303.265 238.856 304.124 238.408C304.982 237.997 305.673 237.493 306.196 236.896C306.718 236.336 306.98 235.72 306.98 235.048V233.592C306.98 232.92 306.718 232.304 306.196 231.744C305.673 231.147 304.982 230.643 304.124 230.232C303.265 229.784 302.276 229.429 301.156 229.168C300.036 228.907 298.86 228.776 297.628 228.776ZM273.38 195.12H298.636V201.112H280.38V213.152C282.321 213.152 284.206 213.152 286.036 213.152C287.865 213.115 289.676 213.077 291.468 213.04C293.26 212.965 295.052 212.872 296.844 212.76C298.673 212.611 300.54 212.443 302.444 212.256L303.06 218.136C301.305 218.36 299.438 218.547 297.46 218.696C295.518 218.808 293.353 218.901 290.964 218.976C288.612 219.051 285.98 219.107 283.068 219.144C280.193 219.144 276.964 219.144 273.38 219.144V195.12ZM332.021 224.016H365.789V244.064H332.021V224.016ZM354.477 203.912H359.069V191.984H365.789V221.664H359.069V210.016H354.477V221.552H347.812V192.656H354.477V203.912ZM321.941 218.528C323.882 217.669 325.581 216.885 327.037 216.176C328.493 215.467 329.743 214.813 330.789 214.216C331.834 213.581 332.693 212.984 333.365 212.424C334.037 211.864 334.578 211.304 334.989 210.744L322.165 211.136L321.997 205.368L336.333 205.088V200.944H323.453V195.12H342.997V204.696C342.997 206.973 342.754 208.933 342.269 210.576C341.783 212.219 340.869 213.731 339.525 215.112C338.218 216.493 336.37 217.856 333.981 219.2C331.629 220.507 328.586 222 324.853 223.68L321.941 218.528ZM339.021 238.184H358.789V229.896H339.021V238.184ZM377.277 223.288V217.352H383.941V202.232H377.613V196.296H414.797V202.232H408.693V217.352H415.245V223.288H377.277ZM390.997 217.352H401.637V202.232H390.997V217.352ZM420.117 231.52V237.512H372.405V231.52H420.117Z" fill="white"/>
<path d="M2.304 295.328H6.672V292.464H0.56V291.504H10.368C10.528 290.864 10.64 290.251 10.704 289.664C10.768 289.067 10.8 288.496 10.8 287.952V287.184H2.336V286.192H11.92V288.016C11.92 288.581 11.8827 289.157 11.808 289.744C11.744 290.32 11.6533 290.907 11.536 291.504H14V292.464H7.792V295.328H12.064V300.288H10.944V296.304H2.304V295.328ZM15.5545 286.992H21.9385V287.984H19.3625V290.16C19.3625 290.533 19.3732 290.853 19.3945 291.12C19.4265 291.387 19.4745 291.632 19.5385 291.856C19.6132 292.08 19.7145 292.299 19.8425 292.512C19.9705 292.715 20.1358 292.944 20.3385 293.2C20.6052 293.531 20.9252 293.904 21.2985 294.32C21.6718 294.725 22.0825 295.152 22.5305 295.6L21.7945 296.32C21.6132 296.149 21.4265 295.963 21.2345 295.76C21.0532 295.547 20.8665 295.339 20.6745 295.136C20.4932 294.933 20.3172 294.736 20.1465 294.544C19.9865 294.352 19.8372 294.181 19.6985 294.032C19.4638 293.765 19.2665 293.52 19.1065 293.296C18.9572 293.061 18.8665 292.901 18.8345 292.816H18.8185C18.7972 292.901 18.7172 293.051 18.5785 293.264C18.4505 293.477 18.2638 293.728 18.0185 294.016C17.7198 294.357 17.3838 294.736 17.0105 295.152C16.6372 295.557 16.1945 296.011 15.6825 296.512L14.9305 295.76C15.1652 295.536 15.3998 295.307 15.6345 295.072C15.8692 294.837 16.0878 294.608 16.2905 294.384C16.5038 294.16 16.6958 293.952 16.8665 293.76C17.0478 293.557 17.1972 293.376 17.3145 293.216C17.5065 292.971 17.6612 292.741 17.7785 292.528C17.9065 292.315 18.0025 292.091 18.0665 291.856C18.1305 291.621 18.1732 291.371 18.1945 291.104C18.2265 290.827 18.2425 290.512 18.2425 290.16V287.984H15.5545V286.992ZM23.7465 290.496V285.856H24.8665V299.456H23.7465V291.52H21.1545V290.496H23.7465ZM27.7145 300.176H26.5945V285.552H27.7145V300.176ZM34.053 294.384C33.541 294.384 33.077 294.32 32.661 294.192C32.2557 294.053 31.9037 293.872 31.605 293.648C31.317 293.424 31.093 293.168 30.933 292.88C30.7837 292.581 30.709 292.267 30.709 291.936V291.36C30.709 291.029 30.7837 290.72 30.933 290.432C31.093 290.133 31.317 289.872 31.605 289.648C31.9037 289.424 32.2557 289.248 32.661 289.12C33.077 288.981 33.541 288.912 34.053 288.912C34.565 288.912 35.0237 288.981 35.429 289.12C35.845 289.248 36.197 289.424 36.485 289.648C36.7837 289.872 37.0077 290.133 37.157 290.432C37.317 290.72 37.397 291.029 37.397 291.36V291.936C37.397 292.267 37.317 292.581 37.157 292.88C37.0077 293.168 36.7837 293.424 36.485 293.648C36.197 293.872 35.845 294.053 35.429 294.192C35.0237 294.32 34.565 294.384 34.053 294.384ZM34.053 289.856C33.7117 289.856 33.4023 289.899 33.125 289.984C32.8477 290.059 32.6077 290.171 32.405 290.32C32.213 290.459 32.0583 290.624 31.941 290.816C31.8343 290.997 31.781 291.195 31.781 291.408V291.888C31.781 292.101 31.8343 292.304 31.941 292.496C32.0583 292.677 32.213 292.843 32.405 292.992C32.6077 293.131 32.8477 293.243 33.125 293.328C33.4023 293.403 33.7117 293.44 34.053 293.44C34.3837 293.44 34.6877 293.403 34.965 293.328C35.253 293.243 35.493 293.131 35.685 292.992C35.8877 292.843 36.0423 292.677 36.149 292.496C36.2663 292.304 36.325 292.101 36.325 291.888V291.408C36.325 291.195 36.2663 290.997 36.149 290.816C36.0423 290.624 35.8877 290.459 35.685 290.32C35.493 290.171 35.253 290.059 34.965 289.984C34.6877 289.899 34.3837 289.856 34.053 289.856ZM32.021 295.504H41.189V300.304H40.069V296.496H32.021V295.504ZM41.189 289.552H43.429V290.544H41.189V294.64H40.069V285.552H41.189V289.552ZM34.613 287.2H38.277V288.176H29.861V287.2H33.493V285.344H34.613V287.2ZM47.4795 297.136V291.776H48.6155V297.136H51.0955V291.776H52.2315V297.136H57.6875V298.112H44.2475V297.136H47.4795ZM54.1675 295.104C54.3595 294.112 54.4875 293.147 54.5515 292.208C54.6262 291.269 54.6635 290.277 54.6635 289.232V287.904H45.9435V286.912H55.8155V288.64C55.8155 289.312 55.8048 289.936 55.7835 290.512C55.7728 291.088 55.7462 291.643 55.7035 292.176C55.6608 292.699 55.6075 293.211 55.5435 293.712C55.4902 294.213 55.4155 294.72 55.3195 295.232L54.1675 295.104ZM67.178 294.384C66.666 294.384 66.202 294.32 65.786 294.192C65.3807 294.053 65.0287 293.872 64.73 293.648C64.442 293.424 64.218 293.168 64.058 292.88C63.9087 292.581 63.834 292.267 63.834 291.936V291.36C63.834 291.029 63.9087 290.72 64.058 290.432C64.218 290.133 64.442 289.872 64.73 289.648C65.0287 289.424 65.3807 289.248 65.786 289.12C66.202 288.981 66.666 288.912 67.178 288.912C67.69 288.912 68.1487 288.981 68.554 289.12C68.97 289.248 69.322 289.424 69.61 289.648C69.9087 289.872 70.1327 290.133 70.282 290.432C70.442 290.72 70.522 291.029 70.522 291.36V291.936C70.522 292.267 70.442 292.581 70.282 292.88C70.1327 293.168 69.9087 293.424 69.61 293.648C69.322 293.872 68.97 294.053 68.554 294.192C68.1487 294.32 67.69 294.384 67.178 294.384ZM67.178 289.856C66.8367 289.856 66.5273 289.899 66.25 289.984C65.9727 290.059 65.7327 290.171 65.53 290.32C65.338 290.459 65.1833 290.624 65.066 290.816C64.9593 290.997 64.906 291.195 64.906 291.408V291.888C64.906 292.101 64.9593 292.304 65.066 292.496C65.1833 292.677 65.338 292.843 65.53 292.992C65.7327 293.131 65.9727 293.243 66.25 293.328C66.5273 293.403 66.8367 293.44 67.178 293.44C67.5087 293.44 67.8127 293.403 68.09 293.328C68.378 293.243 68.618 293.131 68.81 292.992C69.0127 292.843 69.1673 292.677 69.274 292.496C69.3913 292.304 69.45 292.101 69.45 291.888V291.408C69.45 291.195 69.3913 290.997 69.274 290.816C69.1673 290.624 69.0127 290.459 68.81 290.32C68.618 290.171 68.378 290.059 68.09 289.984C67.8127 289.899 67.5087 289.856 67.178 289.856ZM65.146 295.504H74.314V300.304H73.194V296.496H65.146V295.504ZM74.314 289.552H76.554V290.544H74.314V294.64H73.194V285.552H74.314V289.552ZM67.738 287.2H71.402V288.176H62.986V287.2H66.618V285.344H67.738V287.2ZM85.2925 300.56C84.6952 300.56 84.1245 300.496 83.5805 300.368C83.0365 300.251 82.5565 300.075 82.1405 299.84C81.7245 299.616 81.3938 299.339 81.1485 299.008C80.9032 298.677 80.7805 298.304 80.7805 297.888V297.312C80.7805 296.885 80.9032 296.507 81.1485 296.176C81.3938 295.845 81.7245 295.568 82.1405 295.344C82.5565 295.109 83.0365 294.933 83.5805 294.816C84.1245 294.699 84.6952 294.64 85.2925 294.64C85.8898 294.64 86.4605 294.704 87.0045 294.832C87.5485 294.949 88.0285 295.125 88.4445 295.36C88.8605 295.584 89.1912 295.861 89.4365 296.192C89.6818 296.523 89.8045 296.896 89.8045 297.312V297.888C89.8045 298.304 89.6818 298.677 89.4365 299.008C89.1912 299.339 88.8605 299.616 88.4445 299.84C88.0285 300.075 87.5485 300.251 87.0045 300.368C86.4605 300.496 85.8898 300.56 85.2925 300.56ZM85.2925 295.6C84.8658 295.6 84.4445 295.637 84.0285 295.712C83.6232 295.787 83.2605 295.899 82.9405 296.048C82.6205 296.197 82.3592 296.384 82.1565 296.608C81.9645 296.821 81.8685 297.072 81.8685 297.36V297.84C81.8685 298.128 81.9645 298.379 82.1565 298.592C82.3592 298.816 82.6205 299.003 82.9405 299.152C83.2605 299.301 83.6232 299.413 84.0285 299.488C84.4445 299.563 84.8658 299.6 85.2925 299.6C85.7192 299.6 86.1352 299.563 86.5405 299.488C86.9565 299.413 87.3245 299.301 87.6445 299.152C87.9645 299.003 88.2205 298.816 88.4125 298.592C88.6152 298.379 88.7165 298.128 88.7165 297.84V297.36C88.7165 297.072 88.6152 296.821 88.4125 296.608C88.2205 296.384 87.9645 296.197 87.6445 296.048C87.3245 295.899 86.9565 295.787 86.5405 295.712C86.1352 295.637 85.7192 295.6 85.2925 295.6ZM86.4765 289.136H88.6205V285.552H89.7245V294.32H88.6205V290.144H86.4765V293.744H85.3725V285.744H86.4765V289.136ZM83.7565 293.424C83.4472 293.168 83.1378 292.896 82.8285 292.608C82.5192 292.32 82.2418 292.053 81.9965 291.808C81.3992 291.232 81.0738 290.853 81.0205 290.672H81.0045C80.9832 290.757 80.9085 290.896 80.7805 291.088C80.6525 291.269 80.4712 291.488 80.2365 291.744C80.1085 291.883 79.9485 292.048 79.7565 292.24C79.5752 292.421 79.3778 292.613 79.1645 292.816C78.9618 293.008 78.7538 293.2 78.5405 293.392C78.3272 293.584 78.1352 293.749 77.9645 293.888L77.2445 293.136C77.4258 292.987 77.6178 292.821 77.8205 292.64C78.0338 292.459 78.2365 292.277 78.4285 292.096C78.6312 291.904 78.8232 291.712 79.0045 291.52C79.1965 291.328 79.3618 291.152 79.5005 290.992C79.6925 290.768 79.8472 290.56 79.9645 290.368C80.0925 290.176 80.1885 289.984 80.2525 289.792C80.3272 289.589 80.3752 289.376 80.3965 289.152C80.4178 288.928 80.4285 288.661 80.4285 288.352V286.304H81.5485V288.336C81.5485 288.635 81.5592 288.896 81.5805 289.12C81.6018 289.333 81.6445 289.536 81.7085 289.728C81.7725 289.92 81.8632 290.107 81.9805 290.288C82.1085 290.459 82.2792 290.656 82.4925 290.88C82.7378 291.136 83.0312 291.424 83.3725 291.744C83.7138 292.064 84.0765 292.379 84.4605 292.688L83.7565 293.424ZM103.295 286.976H95.071V289.552H103.375V290.512H93.967V286.016H103.295V286.976ZM103.375 294.304V297.728H95.039V299.296H103.807V300.24H93.935V296.8H102.271V295.248H93.855V294.304H103.375ZM105.375 291.92V292.88H91.935V291.92H105.375ZM119.938 292.096V293.056H106.498V292.096H119.938ZM117.794 288.592C117.794 288.965 117.676 289.301 117.442 289.6C117.207 289.899 116.882 290.155 116.466 290.368C116.06 290.571 115.575 290.731 115.01 290.848C114.455 290.955 113.858 291.008 113.218 291.008C112.578 291.008 111.975 290.955 111.41 290.848C110.855 290.731 110.37 290.571 109.954 290.368C109.548 290.155 109.228 289.899 108.994 289.6C108.759 289.301 108.642 288.965 108.642 288.592V288.112C108.642 287.728 108.759 287.387 108.994 287.088C109.228 286.789 109.548 286.539 109.954 286.336C110.37 286.123 110.855 285.963 111.41 285.856C111.975 285.749 112.578 285.696 113.218 285.696C113.858 285.696 114.455 285.755 115.01 285.872C115.575 285.979 116.06 286.139 116.466 286.352C116.882 286.555 117.207 286.805 117.442 287.104C117.676 287.403 117.794 287.739 117.794 288.112V288.592ZM109.746 288.544C109.746 288.757 109.836 288.96 110.018 289.152C110.199 289.333 110.444 289.493 110.754 289.632C111.074 289.771 111.442 289.877 111.858 289.952C112.284 290.027 112.738 290.064 113.218 290.064C113.698 290.064 114.146 290.027 114.562 289.952C114.988 289.877 115.356 289.771 115.666 289.632C115.986 289.493 116.236 289.333 116.418 289.152C116.599 288.96 116.69 288.757 116.69 288.544V288.16C116.69 287.947 116.599 287.749 116.418 287.568C116.236 287.376 115.986 287.216 115.666 287.088C115.356 286.949 114.988 286.843 114.562 286.768C114.146 286.683 113.698 286.64 113.218 286.64C112.738 286.64 112.284 286.683 111.858 286.768C111.442 286.843 111.074 286.949 110.754 287.088C110.444 287.216 110.199 287.376 110.018 287.568C109.836 287.749 109.746 287.947 109.746 288.16V288.544ZM117.938 294.336V297.744H109.618V299.296H118.37V300.24H108.514V296.816H116.834V295.28H108.434V294.336H117.938ZM129.972 292.08C129.46 292.08 128.975 292.016 128.516 291.888C128.068 291.749 127.673 291.557 127.332 291.312C127.001 291.067 126.735 290.773 126.532 290.432C126.34 290.091 126.244 289.717 126.244 289.312V288.64C126.244 288.235 126.34 287.861 126.532 287.52C126.735 287.179 127.001 286.885 127.332 286.64C127.673 286.395 128.068 286.208 128.516 286.08C128.975 285.941 129.46 285.872 129.972 285.872C130.484 285.872 130.964 285.941 131.412 286.08C131.871 286.208 132.265 286.395 132.596 286.64C132.937 286.885 133.204 287.179 133.396 287.52C133.599 287.861 133.7 288.235 133.7 288.64V289.312C133.7 289.717 133.599 290.091 133.396 290.432C133.204 290.773 132.937 291.067 132.596 291.312C132.265 291.557 131.871 291.749 131.412 291.888C130.964 292.016 130.484 292.08 129.972 292.08ZM129.972 286.88C129.62 286.88 129.284 286.928 128.964 287.024C128.644 287.109 128.361 287.232 128.116 287.392C127.881 287.552 127.689 287.749 127.54 287.984C127.401 288.208 127.332 288.453 127.332 288.72V289.232C127.332 289.509 127.401 289.76 127.54 289.984C127.689 290.208 127.881 290.4 128.116 290.56C128.361 290.72 128.644 290.848 128.964 290.944C129.284 291.029 129.62 291.072 129.972 291.072C130.324 291.072 130.66 291.029 130.98 290.944C131.3 290.848 131.577 290.72 131.812 290.56C132.057 290.4 132.249 290.208 132.388 289.984C132.537 289.76 132.612 289.509 132.612 289.232V288.72C132.612 288.453 132.537 288.208 132.388 287.984C132.249 287.749 132.057 287.552 131.812 287.392C131.577 287.232 131.3 287.109 130.98 287.024C130.66 286.928 130.324 286.88 129.972 286.88ZM137.3 300.176H136.164V285.552H137.3V300.176ZM135.14 294.24C134.415 294.315 133.689 294.373 132.964 294.416C132.249 294.459 131.455 294.496 130.58 294.528V299.712H129.428V294.576C128.852 294.587 128.228 294.597 127.556 294.608C126.895 294.608 126.164 294.608 125.364 294.608V293.616C126.516 293.616 127.567 293.611 128.516 293.6C129.476 293.579 130.345 293.557 131.124 293.536C131.913 293.504 132.628 293.467 133.268 293.424C133.919 293.381 134.511 293.328 135.044 293.264L135.14 294.24ZM147.351 292.224C147.351 292.555 147.271 292.875 147.111 293.184C146.961 293.493 146.743 293.771 146.455 294.016C146.167 294.251 145.815 294.443 145.399 294.592C144.983 294.731 144.513 294.8 143.991 294.8C143.468 294.8 142.999 294.731 142.583 294.592C142.167 294.443 141.815 294.251 141.527 294.016C141.239 293.771 141.015 293.493 140.855 293.184C140.705 292.875 140.631 292.555 140.631 292.224V291.616C140.631 291.285 140.705 290.965 140.855 290.656C141.015 290.347 141.239 290.075 141.527 289.84C141.815 289.595 142.167 289.403 142.583 289.264C142.999 289.115 143.468 289.04 143.991 289.04C144.513 289.04 144.983 289.115 145.399 289.264C145.815 289.403 146.167 289.595 146.455 289.84C146.743 290.075 146.961 290.347 147.111 290.656C147.271 290.965 147.351 291.285 147.351 291.616V292.224ZM143.991 293.84C144.343 293.84 144.657 293.792 144.935 293.696C145.223 293.589 145.463 293.456 145.655 293.296C145.857 293.136 146.012 292.96 146.119 292.768C146.225 292.565 146.279 292.368 146.279 292.176V291.664C146.279 291.472 146.225 291.28 146.119 291.088C146.012 290.885 145.857 290.704 145.655 290.544C145.463 290.384 145.223 290.256 144.935 290.16C144.657 290.053 144.343 290 143.991 290C143.639 290 143.319 290.053 143.031 290.16C142.753 290.256 142.513 290.384 142.311 290.544C142.119 290.704 141.969 290.885 141.863 291.088C141.756 291.28 141.703 291.472 141.703 291.664V292.176C141.703 292.368 141.756 292.565 141.863 292.768C141.969 292.96 142.119 293.136 142.311 293.296C142.513 293.456 142.753 293.589 143.031 293.696C143.319 293.792 143.639 293.84 143.991 293.84ZM151.127 290.016H153.367V291.008H151.127V296.192H150.007V285.552H151.127V290.016ZM143.543 299.008H151.575V300H142.407V295.952H143.543V299.008ZM144.551 287.28H148.215V288.256H139.799V287.28H143.431V285.408H144.551V287.28ZM158.969 286.512H165.673V287.52H160.105V292.384C160.905 292.384 161.604 292.384 162.201 292.384C162.809 292.373 163.369 292.357 163.881 292.336C164.404 292.304 164.905 292.267 165.385 292.224C165.876 292.181 166.409 292.128 166.985 292.064L167.113 293.056C166.718 293.109 166.345 293.152 165.993 293.184C165.641 293.216 165.289 293.248 164.937 293.28C164.585 293.301 164.212 293.323 163.817 293.344C163.433 293.355 163.006 293.365 162.537 293.376C162.068 293.376 161.54 293.381 160.953 293.392C160.377 293.392 159.716 293.392 158.969 293.392V286.512ZM169.689 289.536H171.929V290.528H169.689V296.016H168.569V285.552H169.689V289.536ZM162.073 298.992H170.137V300H160.937V295.184H162.073V298.992ZM184.78 300.176H183.644V285.552H184.78V300.176ZM173.5 295.936C174.726 295.232 175.702 294.629 176.428 294.128C177.153 293.616 177.702 293.141 178.076 292.704C178.449 292.256 178.689 291.808 178.796 291.36C178.913 290.912 178.972 290.389 178.972 289.792V287.952H173.66V286.928H180.076V289.808C180.076 290.299 180.049 290.741 179.996 291.136C179.942 291.531 179.836 291.904 179.676 292.256C179.526 292.608 179.313 292.949 179.036 293.28C178.758 293.611 178.396 293.957 177.948 294.32C177.51 294.683 176.972 295.072 176.332 295.488C175.702 295.893 174.956 296.347 174.092 296.848L173.5 295.936ZM198.734 285.952V290.512H194.59V292.032H200.75V292.992H187.31V292.032H193.47V290.512H189.326V285.952H198.734ZM198.75 294.368V297.76H190.414V299.296H199.182V300.24H189.31V296.832H197.646V295.312H189.23V294.368H198.75ZM190.43 289.552H197.63V286.912H190.43V289.552ZM213.953 293.888V300.16H205.025V293.888H206.129V295.904H212.849V293.888H213.953ZM202.561 289.008C202.561 288.645 202.646 288.288 202.817 287.936C202.987 287.584 203.227 287.275 203.537 287.008C203.857 286.731 204.235 286.512 204.673 286.352C205.11 286.181 205.595 286.096 206.129 286.096C206.662 286.096 207.147 286.181 207.585 286.352C208.022 286.512 208.395 286.731 208.705 287.008C209.025 287.275 209.27 287.584 209.441 287.936C209.611 288.288 209.697 288.645 209.697 289.008V289.776C209.697 290.149 209.611 290.512 209.441 290.864C209.27 291.205 209.025 291.515 208.705 291.792C208.395 292.059 208.022 292.277 207.585 292.448C207.147 292.608 206.662 292.688 206.129 292.688C205.595 292.688 205.11 292.608 204.673 292.448C204.235 292.277 203.857 292.059 203.537 291.792C203.227 291.515 202.987 291.205 202.817 290.864C202.646 290.512 202.561 290.149 202.561 289.776V289.008ZM208.609 289.12C208.609 288.853 208.545 288.603 208.417 288.368C208.299 288.123 208.129 287.909 207.905 287.728C207.681 287.536 207.414 287.387 207.105 287.28C206.806 287.163 206.481 287.104 206.129 287.104C205.777 287.104 205.446 287.163 205.137 287.28C204.838 287.387 204.577 287.536 204.353 287.728C204.129 287.909 203.953 288.123 203.825 288.368C203.707 288.603 203.649 288.853 203.649 289.12V289.664C203.649 289.931 203.707 290.187 203.825 290.432C203.953 290.667 204.129 290.88 204.353 291.072C204.577 291.253 204.838 291.403 205.137 291.52C205.446 291.627 205.777 291.68 206.129 291.68C206.481 291.68 206.806 291.627 207.105 291.52C207.414 291.403 207.681 291.253 207.905 291.072C208.129 290.88 208.299 290.667 208.417 290.432C208.545 290.187 208.609 289.931 208.609 289.664V289.12ZM212.849 299.152V296.896H206.129V299.152H212.849ZM213.953 293.024H212.833V285.552H213.953V293.024ZM232.563 300.192H231.459V294.048H227.923C227.688 294.859 227.283 295.483 226.707 295.92C226.142 296.347 225.427 296.56 224.563 296.56C223.432 296.56 222.547 296.192 221.907 295.456C221.278 294.709 220.963 293.664 220.963 292.32V290.816C220.963 289.483 221.278 288.448 221.907 287.712C222.547 286.965 223.432 286.592 224.563 286.592C225.416 286.592 226.126 286.811 226.691 287.248C227.267 287.675 227.678 288.288 227.923 289.088H231.459V285.552H232.563V300.192ZM227.059 291.024C227.059 290.416 227 289.899 226.883 289.472C226.766 289.045 226.595 288.699 226.371 288.432C226.158 288.155 225.896 287.957 225.587 287.84C225.278 287.712 224.936 287.648 224.563 287.648C224.19 287.648 223.848 287.712 223.539 287.84C223.23 287.957 222.963 288.155 222.739 288.432C222.526 288.699 222.36 289.045 222.243 289.472C222.126 289.899 222.067 290.416 222.067 291.024V292.128C222.067 292.736 222.126 293.259 222.243 293.696C222.36 294.123 222.526 294.475 222.739 294.752C222.963 295.019 223.23 295.216 223.539 295.344C223.848 295.461 224.19 295.52 224.563 295.52C224.936 295.52 225.278 295.461 225.587 295.344C225.896 295.216 226.158 295.019 226.371 294.752C226.595 294.475 226.766 294.123 226.883 293.696C227 293.259 227.059 292.736 227.059 292.128V291.024ZM228.163 292.32C228.163 292.437 228.158 292.555 228.147 292.672C228.147 292.789 228.142 292.907 228.131 293.024H231.459V290.112H228.131C228.142 290.229 228.147 290.352 228.147 290.48C228.158 290.597 228.163 290.715 228.163 290.832V292.32ZM248.438 293.264V294.224H234.998V293.264H248.438ZM236.966 286.064H246.358V289.472H238.086V291.008H246.678V291.952H237.014V288.544H245.286V287.008H236.966V286.064ZM236.966 295.584H246.47V300.16H236.966V295.584ZM238.054 299.152H245.382V296.592H238.054V299.152ZM252.856 294.704H261.928V300.144H252.856V294.704ZM253.944 299.136H260.84V295.712H253.944V299.136ZM258.616 289.152H260.824V285.552H261.928V293.84H260.824V290.16H258.616V293.808H257.512V285.744H258.616V289.152ZM249.96 293.216C250.685 292.896 251.299 292.608 251.8 292.352C252.301 292.096 252.717 291.851 253.048 291.616C253.379 291.381 253.635 291.152 253.816 290.928C254.008 290.704 254.152 290.459 254.248 290.192L249.944 290.32L249.912 289.36L254.408 289.264C254.419 289.168 254.424 289.067 254.424 288.96C254.424 288.853 254.424 288.741 254.424 288.624V287.472H250.328V286.48H255.496V288.752C255.496 289.445 255.427 290.027 255.288 290.496C255.149 290.955 254.893 291.376 254.52 291.76C254.147 292.144 253.629 292.517 252.968 292.88C252.317 293.232 251.475 293.648 250.44 294.128L249.96 293.216ZM276.027 286.896V287.84H273.899V293.056H276.171V294H265.515V293.056H267.786V287.84H265.659V286.896H276.027ZM268.907 293.056H272.779V287.84H268.907V293.056ZM277.563 297.136V298.112H264.123V297.136H277.563ZM8.272 316.32C8.272 317.664 7.952 318.709 7.312 319.456C6.68267 320.192 5.80267 320.56 4.672 320.56C3.54133 320.56 2.656 320.192 2.016 319.456C1.38667 318.709 1.072 317.664 1.072 316.32V314.816C1.072 313.483 1.38667 312.448 2.016 311.712C2.656 310.965 3.54133 310.592 4.672 310.592C5.80267 310.592 6.68267 310.965 7.312 311.712C7.952 312.459 8.272 313.499 8.272 314.832V316.32ZM7.168 315.024C7.168 314.416 7.10933 313.899 6.992 313.472C6.87467 313.045 6.704 312.699 6.48 312.432C6.26667 312.155 6.00533 311.957 5.696 311.84C5.38667 311.712 5.04533 311.648 4.672 311.648C4.29867 311.648 3.95733 311.712 3.648 311.84C3.33867 311.957 3.072 312.155 2.848 312.432C2.63467 312.699 2.46933 313.045 2.352 313.472C2.23467 313.899 2.176 314.416 2.176 315.024V316.128C2.176 316.736 2.23467 317.259 2.352 317.696C2.46933 318.123 2.63467 318.475 2.848 318.752C3.072 319.019 3.33867 319.216 3.648 319.344C3.95733 319.461 4.29867 319.52 4.672 319.52C5.04533 319.52 5.38667 319.461 5.696 319.344C6.00533 319.216 6.26667 319.019 6.48 318.752C6.704 318.475 6.87467 318.123 6.992 317.696C7.10933 317.259 7.168 316.736 7.168 316.128V315.024ZM11.92 315.04H14.352V316.048H11.92V324.176H10.784V309.552H11.92V315.04ZM27.1865 324.176H26.0505V309.552H27.1865V324.176ZM23.1545 316.336C23.1545 317.68 22.8345 318.725 22.1945 319.472C21.5652 320.219 20.6798 320.592 19.5385 320.592C18.3972 320.592 17.5065 320.219 16.8665 319.472C16.2372 318.725 15.9225 317.68 15.9225 316.336V314.816C15.9225 313.472 16.2372 312.432 16.8665 311.696C17.5065 310.949 18.3972 310.576 19.5385 310.576C20.6798 310.576 21.5652 310.949 22.1945 311.696C22.8345 312.443 23.1545 313.488 23.1545 314.832V316.336ZM22.0505 315.024C22.0505 314.416 21.9865 313.899 21.8585 313.472C21.7412 313.045 21.5705 312.699 21.3465 312.432C21.1332 312.155 20.8718 311.952 20.5625 311.824C20.2532 311.696 19.9118 311.632 19.5385 311.632C19.1652 311.632 18.8238 311.696 18.5145 311.824C18.2052 311.952 17.9385 312.155 17.7145 312.432C17.5012 312.699 17.3305 313.045 17.2025 313.472C17.0852 313.899 17.0265 314.416 17.0265 315.024V316.144C17.0265 316.752 17.0852 317.275 17.2025 317.712C17.3305 318.139 17.5012 318.491 17.7145 318.768C17.9385 319.035 18.2052 319.232 18.5145 319.36C18.8238 319.488 19.1652 319.552 19.5385 319.552C19.9118 319.552 20.2532 319.488 20.5625 319.36C20.8718 319.232 21.1332 319.035 21.3465 318.768C21.5705 318.491 21.7412 318.139 21.8585 317.712C21.9865 317.275 22.0505 316.752 22.0505 316.144V315.024ZM42.005 324.176H40.869V309.552H42.005V324.176ZM39.845 320.592C39.1837 320.656 38.5277 320.715 37.877 320.768C37.237 320.811 36.5383 320.848 35.781 320.88C35.0343 320.912 34.197 320.933 33.269 320.944C32.3517 320.955 31.2797 320.96 30.053 320.96V319.968C31.2157 319.968 32.2557 319.963 33.173 319.952C34.101 319.941 34.949 319.925 35.717 319.904C36.485 319.872 37.1943 319.835 37.845 319.792C38.4957 319.739 39.1303 319.68 39.749 319.616L39.845 320.592ZM34.629 317.472C34.1063 317.472 33.6157 317.392 33.157 317.232C32.6983 317.072 32.293 316.853 31.941 316.576C31.5997 316.299 31.3277 315.973 31.125 315.6C30.9223 315.227 30.821 314.821 30.821 314.384V313.616C30.821 313.179 30.9223 312.773 31.125 312.4C31.3277 312.027 31.5997 311.701 31.941 311.424C32.293 311.147 32.6983 310.928 33.157 310.768C33.6157 310.608 34.1063 310.528 34.629 310.528C35.1517 310.528 35.6423 310.608 36.101 310.768C36.5597 310.928 36.9597 311.147 37.301 311.424C37.653 311.701 37.9303 312.032 38.133 312.416C38.3357 312.789 38.437 313.189 38.437 313.616V314.384C38.437 314.821 38.3357 315.227 38.133 315.6C37.9303 315.973 37.653 316.299 37.301 316.576C36.9597 316.853 36.5597 317.072 36.101 317.232C35.6423 317.392 35.1517 317.472 34.629 317.472ZM34.629 311.52C34.277 311.52 33.9357 311.579 33.605 311.696C33.285 311.803 32.997 311.957 32.741 312.16C32.485 312.352 32.2823 312.581 32.133 312.848C31.9837 313.104 31.909 313.381 31.909 313.68V314.32C31.909 314.619 31.9837 314.901 32.133 315.168C32.2823 315.424 32.485 315.653 32.741 315.856C32.997 316.048 33.285 316.203 33.605 316.32C33.9357 316.427 34.277 316.48 34.629 316.48C34.981 316.48 35.317 316.427 35.637 316.32C35.9677 316.203 36.261 316.048 36.517 315.856C36.773 315.653 36.9757 315.424 37.125 315.168C37.2743 314.901 37.349 314.619 37.349 314.32V313.68C37.349 313.381 37.2743 313.104 37.125 312.848C36.9757 312.581 36.773 312.352 36.517 312.16C36.261 311.957 35.9677 311.803 35.637 311.696C35.317 311.579 34.981 311.52 34.629 311.52ZM60.3435 324.176H59.2075V309.552H60.3435V324.176ZM56.0875 310.88V320.32H49.3195V310.88H56.0875ZM54.9675 311.904H50.4395V319.296H54.9675V311.904ZM72.154 314.976H74.202V309.552H75.322V324.176H74.202V315.984H72.154V323.456H71.034V309.856H72.154V314.976ZM64.586 319.376H65.706C66.0473 319.376 66.378 319.376 66.698 319.376C67.0287 319.365 67.3593 319.349 67.69 319.328C68.0313 319.307 68.378 319.28 68.73 319.248C69.0927 319.216 69.4767 319.168 69.882 319.104L70.01 320.096C69.178 320.224 68.3887 320.304 67.642 320.336C66.906 320.368 66.186 320.384 65.482 320.384H63.482V314.992H67.706V311.808H63.482V310.832H68.81V315.968H64.586V319.376ZM88.8125 318.752V321.968H80.4765V323.312H89.2445V324.256H79.3725V321.04H87.7085V319.696H79.2925V318.752H88.8125ZM90.8125 316.528V317.488H77.3725V316.528H90.8125ZM79.3405 309.936H88.7325V313.088H80.4605V314.368H89.0525V315.312H79.3885V312.16H87.6605V310.88H79.3405V309.936ZM106.239 314.704C106.25 314.491 106.255 314.272 106.255 314.048C106.266 313.824 106.271 313.589 106.271 313.344V311.84H97.711V310.848H107.439V312.752C107.439 313.467 107.423 314.128 107.391 314.736C107.37 315.333 107.332 315.899 107.279 316.432C107.236 316.955 107.178 317.456 107.103 317.936C107.039 318.405 106.959 318.88 106.863 319.36L105.695 319.232C105.812 318.624 105.908 318.032 105.983 317.456C106.068 316.88 106.138 316.288 106.191 315.68L97.503 315.824L97.471 314.816L106.239 314.704ZM101.039 321.136V317.456H102.191V321.136H109.375V322.112H95.935V321.136H101.039ZM122.578 318.16H121.458V309.552H122.578V318.16ZM118.226 318.48C118.823 318.48 119.388 318.544 119.922 318.672C120.466 318.8 120.94 318.981 121.346 319.216C121.751 319.451 122.071 319.739 122.306 320.08C122.54 320.411 122.658 320.784 122.658 321.2V321.824C122.658 322.24 122.54 322.619 122.306 322.96C122.071 323.301 121.751 323.589 121.346 323.824C120.94 324.059 120.466 324.24 119.922 324.368C119.388 324.496 118.823 324.56 118.226 324.56C117.628 324.56 117.058 324.496 116.514 324.368C115.98 324.24 115.511 324.059 115.106 323.824C114.7 323.589 114.38 323.301 114.146 322.96C113.911 322.619 113.794 322.24 113.794 321.824V321.2C113.794 320.773 113.911 320.389 114.146 320.048C114.38 319.707 114.7 319.424 115.106 319.2C115.511 318.965 115.98 318.789 116.514 318.672C117.058 318.544 117.628 318.48 118.226 318.48ZM118.226 323.6C118.652 323.6 119.063 323.557 119.458 323.472C119.863 323.387 120.22 323.264 120.53 323.104C120.85 322.955 121.1 322.768 121.282 322.544C121.474 322.32 121.57 322.064 121.57 321.776V321.264C121.57 320.976 121.474 320.72 121.282 320.496C121.1 320.272 120.85 320.085 120.53 319.936C120.22 319.776 119.863 319.653 119.458 319.568C119.063 319.483 118.652 319.44 118.226 319.44C117.799 319.44 117.383 319.483 116.978 319.568C116.583 319.653 116.226 319.776 115.906 319.936C115.596 320.085 115.346 320.272 115.154 320.496C114.972 320.72 114.882 320.976 114.882 321.264V321.776C114.882 322.064 114.972 322.32 115.154 322.544C115.346 322.768 115.596 322.955 115.906 323.104C116.226 323.264 116.583 323.387 116.978 323.472C117.383 323.557 117.799 323.6 118.226 323.6ZM111.522 310.48H118.354V311.472H112.658V315.968C113.5 315.968 114.242 315.968 114.882 315.968C115.532 315.957 116.13 315.941 116.674 315.92C117.228 315.888 117.756 315.851 118.258 315.808C118.759 315.765 119.292 315.712 119.858 315.648L119.986 316.64C119.367 316.715 118.791 316.773 118.258 316.816C117.735 316.859 117.164 316.896 116.546 316.928C115.938 316.949 115.234 316.965 114.434 316.976C113.644 316.976 112.674 316.976 111.522 316.976V310.48ZM129.38 320.816C128.825 320.816 128.335 320.731 127.908 320.56C127.481 320.379 127.119 320.149 126.82 319.872C126.532 319.584 126.308 319.259 126.148 318.896C125.999 318.533 125.924 318.165 125.924 317.792V316.928C125.924 316.555 125.999 316.187 126.148 315.824C126.308 315.461 126.532 315.136 126.82 314.848C127.119 314.56 127.481 314.331 127.908 314.16C128.335 313.979 128.825 313.888 129.38 313.888C129.935 313.888 130.425 313.979 130.852 314.16C131.279 314.331 131.636 314.56 131.924 314.848C132.223 315.136 132.447 315.461 132.596 315.824C132.756 316.187 132.836 316.555 132.836 316.928V317.792C132.836 318.165 132.756 318.533 132.596 318.896C132.447 319.259 132.223 319.584 131.924 319.872C131.636 320.149 131.279 320.379 130.852 320.56C130.425 320.731 129.935 320.816 129.38 320.816ZM129.38 314.896C129.017 314.896 128.687 314.949 128.388 315.056C128.1 315.163 127.849 315.312 127.636 315.504C127.433 315.696 127.273 315.925 127.156 316.192C127.049 316.448 126.996 316.725 126.996 317.024V317.696C126.996 317.995 127.049 318.277 127.156 318.544C127.273 318.8 127.433 319.024 127.636 319.216C127.849 319.408 128.1 319.557 128.388 319.664C128.687 319.771 129.017 319.824 129.38 319.824C129.743 319.824 130.068 319.771 130.356 319.664C130.655 319.557 130.905 319.408 131.108 319.216C131.321 319.024 131.481 318.8 131.588 318.544C131.705 318.277 131.764 317.995 131.764 317.696V317.024C131.764 316.725 131.705 316.448 131.588 316.192C131.481 315.925 131.321 315.696 131.108 315.504C130.905 315.312 130.655 315.163 130.356 315.056C130.068 314.949 129.743 314.896 129.38 314.896ZM136.452 315.536H138.884V316.544H136.452V324.176H135.316V309.552H136.452V315.536ZM128.82 311.856V309.632H129.956V311.856H133.604V312.848H125.124V311.856H128.82ZM148.231 314.448V309.856H149.351V323.456H148.231V315.472H145.559V314.448H148.231ZM142.679 310.72H143.815V314C143.815 314.384 143.825 314.715 143.847 314.992C143.879 315.259 143.932 315.504 144.007 315.728C144.081 315.952 144.183 316.171 144.311 316.384C144.439 316.597 144.604 316.832 144.807 317.088C145.073 317.429 145.393 317.808 145.767 318.224C146.151 318.64 146.572 319.072 147.031 319.52L146.279 320.256C145.873 319.851 145.484 319.44 145.111 319.024C144.748 318.608 144.428 318.245 144.151 317.936C143.905 317.659 143.703 317.408 143.543 317.184C143.393 316.949 143.303 316.789 143.271 316.704H143.255C143.233 316.789 143.153 316.939 143.015 317.152C142.876 317.365 142.684 317.621 142.439 317.92C142.14 318.272 141.799 318.651 141.414 319.056C141.041 319.461 140.599 319.92 140.087 320.432L139.319 319.68C139.553 319.456 139.788 319.227 140.023 318.992C140.268 318.747 140.492 318.512 140.695 318.288C140.908 318.064 141.1 317.851 141.271 317.648C141.452 317.445 141.607 317.264 141.735 317.104C141.927 316.859 142.081 316.629 142.199 316.416C142.327 316.192 142.423 315.963 142.487 315.728C142.561 315.493 142.609 315.237 142.631 314.96C142.663 314.683 142.679 314.363 142.679 314V310.72ZM152.215 324.176H151.095V309.552H152.215V324.176ZM156.089 313.872C156.089 313.349 156.217 312.88 156.473 312.464C156.729 312.037 157.076 311.675 157.513 311.376C157.95 311.077 158.457 310.848 159.033 310.688C159.62 310.517 160.244 310.432 160.905 310.432C161.556 310.432 162.169 310.517 162.745 310.688C163.332 310.848 163.844 311.077 164.281 311.376C164.729 311.675 165.081 312.037 165.337 312.464C165.593 312.88 165.721 313.349 165.721 313.872V314.656C165.721 315.221 165.572 315.728 165.273 316.176C164.974 316.624 164.574 316.997 164.073 317.296V321.136H167.625V322.112H154.185V321.136H157.737V317.296C157.225 316.997 156.82 316.629 156.521 316.192C156.233 315.744 156.089 315.232 156.089 314.656V313.872ZM160.905 311.472C160.382 311.472 159.897 311.536 159.449 311.664C159.001 311.781 158.612 311.947 158.281 312.16C157.95 312.373 157.689 312.629 157.497 312.928C157.305 313.227 157.209 313.557 157.209 313.92V314.608C157.209 314.971 157.305 315.301 157.497 315.6C157.689 315.899 157.95 316.16 158.281 316.384C158.612 316.597 159.001 316.763 159.449 316.88C159.897 316.997 160.382 317.056 160.905 317.056C161.417 317.056 161.897 316.997 162.345 316.88C162.804 316.763 163.198 316.597 163.529 316.384C163.86 316.16 164.121 315.899 164.313 315.6C164.505 315.301 164.601 314.971 164.601 314.608V313.92C164.601 313.557 164.505 313.227 164.313 312.928C164.121 312.629 163.86 312.373 163.529 312.16C163.198 311.947 162.804 311.781 162.345 311.664C161.897 311.536 161.417 311.472 160.905 311.472ZM160.905 318.096C160.532 318.096 160.174 318.069 159.833 318.016C159.492 317.963 159.166 317.888 158.857 317.792V321.136H162.953V317.792C162.644 317.899 162.313 317.979 161.961 318.032C161.62 318.075 161.268 318.096 160.905 318.096ZM169.66 321.296H171.196V322.864H169.66V321.296ZM169.964 319.632L169.772 310.576H171.084L170.892 319.632H169.964Z" fill="white"/>
<rect y="123" width="242" height="36" rx="8" fill="#F3FF6F"/>
<path d="M17.458 133.49H19.762V146.468H17.458V133.49ZM31.3187 133.49V135.434H27.5207V146.468H25.2167V135.434H21.4007V133.49H31.3187ZM49.8099 137.792H52.1139V139.772H49.8099V148.592H47.5239V131.852H49.8099V137.792ZM41.2959 144.65C40.5399 144.65 39.8919 144.53 39.3519 144.29C38.8119 144.05 38.3619 143.714 38.0019 143.282C37.6539 142.85 37.3959 142.34 37.2279 141.752C37.0719 141.164 36.9939 140.516 36.9939 139.808V137.81C36.9939 137.114 37.0719 136.472 37.2279 135.884C37.3959 135.284 37.6539 134.768 38.0019 134.336C38.3619 133.904 38.8119 133.568 39.3519 133.328C39.8919 133.088 40.5399 132.968 41.2959 132.968C42.0519 132.968 42.6999 133.088 43.2399 133.328C43.7799 133.568 44.2239 133.904 44.5719 134.336C44.9319 134.768 45.1899 135.284 45.3459 135.884C45.5139 136.472 45.5979 137.114 45.5979 137.81V139.808C45.5979 140.516 45.5139 141.164 45.3459 141.752C45.1899 142.34 44.9319 142.85 44.5719 143.282C44.2239 143.714 43.7799 144.05 43.2399 144.29C42.6999 144.53 42.0519 144.65 41.2959 144.65ZM41.2959 134.966C40.5399 134.966 39.9939 135.23 39.6579 135.758C39.3339 136.286 39.1719 137.06 39.1719 138.08V139.538C39.1719 140.558 39.3339 141.332 39.6579 141.86C39.9939 142.388 40.5399 142.652 41.2959 142.652C42.0519 142.652 42.5919 142.388 42.9159 141.86C43.2519 141.332 43.4199 140.558 43.4199 139.538V138.08C43.4199 137.06 43.2519 136.286 42.9159 135.758C42.5919 135.23 42.0519 134.966 41.2959 134.966ZM58.2907 144.272H53.5027V133.148H55.4467V136.982H56.3467V133.148H58.2907V144.272ZM63.7627 144.272H58.9747V133.148H60.9187V136.982H61.8187V133.148H63.7627V144.272ZM66.7687 137.666H68.6767V139.628H66.7687V148.592H64.6807V131.852H66.7687V137.666ZM60.9187 142.4H61.8187V138.854H60.9187V142.4ZM55.4467 142.4H56.3467V138.854H55.4467V142.4ZM82.4855 141.68V146.018H73.5935V147.026H82.9715V148.736H71.3975V144.38H80.2895V143.39H71.3075V141.68H82.4855ZM84.6275 138.836V140.582H69.2915V138.836H84.6275ZM82.3055 133.994H73.7195V136.01H82.4315V137.756H71.4695V132.248H82.3055V133.994ZM90.8403 144.65C90.0723 144.65 89.4123 144.53 88.8603 144.29C88.3203 144.05 87.8763 143.714 87.5283 143.282C87.1803 142.85 86.9223 142.34 86.7543 141.752C86.5983 141.164 86.5203 140.516 86.5203 139.808V137.81C86.5203 137.114 86.5983 136.472 86.7543 135.884C86.9223 135.284 87.1803 134.768 87.5283 134.336C87.8763 133.904 88.3203 133.568 88.8603 133.328C89.4123 133.088 90.0723 132.968 90.8403 132.968C91.6083 132.968 92.2623 133.088 92.8023 133.328C93.3543 133.568 93.8043 133.904 94.1523 134.336C94.5003 134.768 94.7523 135.284 94.9083 135.884C95.0763 136.472 95.1603 137.114 95.1603 137.81V139.808C95.1603 140.516 95.0763 141.164 94.9083 141.752C94.7523 142.34 94.5003 142.85 94.1523 143.282C93.8043 143.714 93.3543 144.05 92.8023 144.29C92.2623 144.53 91.6083 144.65 90.8403 144.65ZM90.8403 134.966C90.0723 134.966 89.5203 135.23 89.1843 135.758C88.8603 136.286 88.6983 137.06 88.6983 138.08V139.538C88.6983 140.558 88.8603 141.332 89.1843 141.86C89.5203 142.388 90.0723 142.652 90.8403 142.652C91.6083 142.652 92.1543 142.388 92.4783 141.86C92.8143 141.332 92.9823 140.558 92.9823 139.538V138.08C92.9823 137.06 92.8143 136.286 92.4783 135.758C92.1543 135.23 91.6083 134.966 90.8403 134.966ZM99.7683 148.592H97.4823V131.852H99.7683V148.592ZM111.633 138.548C111.597 138.704 111.471 138.896 111.255 139.124C111.051 139.34 110.811 139.574 110.535 139.826C110.127 140.21 109.719 140.576 109.311 140.924C108.903 141.272 108.417 141.674 107.853 142.13L106.449 140.474C106.917 140.114 107.385 139.73 107.853 139.322C108.333 138.902 108.783 138.494 109.203 138.098C109.635 137.678 109.941 137.258 110.121 136.838C110.313 136.418 110.409 135.902 110.409 135.29V132.59H112.713V135.2C112.713 135.524 112.731 135.812 112.767 136.064C112.803 136.316 112.863 136.544 112.947 136.748C113.031 136.952 113.145 137.15 113.289 137.342C113.445 137.522 113.643 137.714 113.883 137.918C114.315 138.29 114.753 138.644 115.197 138.98C115.641 139.316 116.079 139.64 116.511 139.952L115.197 141.536C114.849 141.284 114.477 141.008 114.081 140.708C113.685 140.408 113.277 140.084 112.857 139.736C112.545 139.484 112.281 139.262 112.065 139.07C111.849 138.878 111.711 138.704 111.651 138.548H111.633ZM118.185 137.324H115.233V135.38H118.185V131.852H120.453V143.732H118.185V137.324ZM112.083 146.468H120.723V148.412H109.797V142.724H112.083V146.468ZM133.65 135.74H135.036V131.852H137.196V141.86H135.036V137.702H133.65V141.824H131.508V132.068H133.65V135.74ZM129.942 132.752V134.624H125.532V136.046H129.834V137.882H125.532V139.304C126.48 139.304 127.362 139.292 128.178 139.268C128.994 139.232 129.768 139.172 130.5 139.088L130.716 140.906C130.32 140.954 129.888 140.996 129.42 141.032C128.964 141.068 128.436 141.098 127.836 141.122C127.248 141.134 126.588 141.146 125.856 141.158C125.124 141.17 124.29 141.176 123.354 141.176V132.752H129.942ZM125.946 142.616H137.196V148.808H134.928V144.524H125.946V142.616ZM152.607 136.694H154.803V138.674H152.607V143.984H150.339V131.852H152.607V136.694ZM144.471 146.486H153.003V148.43H142.185V143.768H144.471V146.486ZM145.461 133.526H149.079V135.452H139.503V133.526H143.193V131.708H145.461V133.526ZM144.327 142.778C143.691 142.778 143.127 142.7 142.635 142.544C142.143 142.376 141.723 142.154 141.375 141.878C141.039 141.602 140.781 141.284 140.601 140.924C140.421 140.564 140.331 140.18 140.331 139.772V139.088C140.331 138.68 140.421 138.296 140.601 137.936C140.781 137.576 141.039 137.258 141.375 136.982C141.723 136.706 142.143 136.49 142.635 136.334C143.127 136.166 143.691 136.082 144.327 136.082C144.951 136.082 145.509 136.166 146.001 136.334C146.505 136.49 146.925 136.706 147.261 136.982C147.609 137.258 147.873 137.576 148.053 137.936C148.233 138.296 148.323 138.68 148.323 139.088V139.772C148.323 140.18 148.233 140.564 148.053 140.924C147.873 141.284 147.609 141.602 147.261 141.878C146.925 142.154 146.505 142.376 146.001 142.544C145.509 142.7 144.951 142.778 144.327 142.778ZM144.327 137.864C144.027 137.864 143.757 137.906 143.517 137.99C143.289 138.074 143.097 138.182 142.941 138.314C142.785 138.446 142.665 138.59 142.581 138.746C142.509 138.902 142.473 139.058 142.473 139.214V139.646C142.473 139.802 142.509 139.958 142.581 140.114C142.665 140.27 142.785 140.414 142.941 140.546C143.097 140.678 143.289 140.786 143.517 140.87C143.757 140.954 144.027 140.996 144.327 140.996C144.627 140.996 144.891 140.954 145.119 140.87C145.359 140.786 145.557 140.678 145.713 140.546C145.869 140.414 145.983 140.27 146.055 140.114C146.139 139.958 146.181 139.802 146.181 139.646V139.214C146.181 139.058 146.139 138.902 146.055 138.746C145.983 138.59 145.869 138.446 145.713 138.314C145.557 138.182 145.359 138.074 145.119 137.99C144.891 137.906 144.627 137.864 144.327 137.864ZM170.682 142.652C170.802 142.064 170.898 141.512 170.97 140.996C171.042 140.468 171.102 139.928 171.15 139.376L161.88 139.502L161.826 137.54L171.222 137.414C171.234 137.258 171.24 137.096 171.24 136.928C171.24 136.76 171.24 136.586 171.24 136.406V135.164H162.132V133.202H173.49V135.812C173.49 136.628 173.478 137.36 173.454 138.008C173.43 138.644 173.394 139.238 173.346 139.79C173.298 140.342 173.232 140.87 173.148 141.374C173.076 141.866 172.992 142.382 172.896 142.922L170.682 142.652ZM165.48 144.56V140.96H167.748V144.56H175.542V146.486H160.206V144.56H165.48ZM190.502 141.752H188.234V131.852H190.502V141.752ZM185.318 149.096C184.574 149.096 183.884 149.024 183.248 148.88C182.612 148.736 182.06 148.52 181.592 148.232C181.124 147.956 180.752 147.614 180.476 147.206C180.212 146.81 180.08 146.36 180.08 145.856V145.064C180.08 144.56 180.212 144.11 180.476 143.714C180.752 143.306 181.124 142.964 181.592 142.688C182.06 142.4 182.612 142.184 183.248 142.04C183.884 141.896 184.574 141.824 185.318 141.824C186.062 141.824 186.752 141.896 187.388 142.04C188.024 142.184 188.576 142.4 189.044 142.688C189.512 142.964 189.878 143.306 190.142 143.714C190.418 144.11 190.556 144.56 190.556 145.064V145.856C190.556 146.36 190.418 146.81 190.142 147.206C189.878 147.614 189.512 147.956 189.044 148.232C188.576 148.52 188.024 148.736 187.388 148.88C186.752 149.024 186.062 149.096 185.318 149.096ZM185.318 143.678C184.922 143.678 184.544 143.72 184.184 143.804C183.824 143.888 183.506 144.002 183.23 144.146C182.954 144.278 182.732 144.44 182.564 144.632C182.396 144.812 182.312 145.01 182.312 145.226V145.694C182.312 145.91 182.396 146.108 182.564 146.288C182.732 146.48 182.954 146.642 183.23 146.774C183.506 146.918 183.824 147.032 184.184 147.116C184.544 147.2 184.922 147.242 185.318 147.242C185.714 147.242 186.092 147.2 186.452 147.116C186.812 147.032 187.13 146.918 187.406 146.774C187.682 146.642 187.904 146.48 188.072 146.288C188.24 146.108 188.324 145.91 188.324 145.694V145.226C188.324 145.01 188.24 144.812 188.072 144.632C187.904 144.44 187.682 144.278 187.406 144.146C187.13 144.002 186.812 143.888 186.452 143.804C186.092 143.72 185.714 143.678 185.318 143.678ZM177.524 132.86H185.642V134.786H179.774V138.656C180.398 138.656 181.004 138.656 181.592 138.656C182.18 138.644 182.762 138.632 183.338 138.62C183.914 138.596 184.49 138.566 185.066 138.53C185.654 138.482 186.254 138.428 186.866 138.368L187.064 140.258C186.5 140.33 185.9 140.39 185.264 140.438C184.64 140.474 183.944 140.504 183.176 140.528C182.42 140.552 181.574 140.57 180.638 140.582C179.714 140.582 178.676 140.582 177.524 140.582V132.86ZM196.247 144.578V139.016H198.461V144.578H200.063V139.016H202.277V144.578H208.307V146.486H192.971V144.578H196.247ZM203.573 142.526C203.681 141.962 203.765 141.422 203.825 140.906C203.885 140.378 203.927 139.862 203.951 139.358C203.987 138.854 204.011 138.35 204.023 137.846C204.035 137.33 204.041 136.808 204.041 136.28V135.218H194.807V133.256H206.273V135.686C206.273 137.03 206.237 138.278 206.165 139.43C206.105 140.582 205.979 141.71 205.787 142.814L203.573 142.526ZM213.332 143.228V141.446H209.354V139.574H224.69V141.446H220.712V143.228H222.62V148.79H220.352V145.1H211.352V143.228H213.332ZM217.022 138.782C216.218 138.782 215.48 138.716 214.808 138.584C214.136 138.44 213.554 138.236 213.062 137.972C212.582 137.696 212.204 137.36 211.928 136.964C211.664 136.568 211.532 136.112 211.532 135.596V135.2C211.532 134.684 211.664 134.228 211.928 133.832C212.204 133.436 212.582 133.106 213.062 132.842C213.554 132.566 214.136 132.362 214.808 132.23C215.48 132.086 216.218 132.014 217.022 132.014C217.826 132.014 218.564 132.086 219.236 132.23C219.908 132.362 220.484 132.566 220.964 132.842C221.456 133.106 221.834 133.436 222.098 133.832C222.374 134.228 222.512 134.684 222.512 135.2V135.596C222.512 136.112 222.374 136.568 222.098 136.964C221.834 137.36 221.456 137.696 220.964 137.972C220.484 138.236 219.908 138.44 219.236 138.584C218.564 138.716 217.826 138.782 217.022 138.782ZM217.022 133.85C216.002 133.85 215.204 133.976 214.628 134.228C214.064 134.48 213.782 134.816 213.782 135.236V135.56C213.782 135.98 214.064 136.316 214.628 136.568C215.204 136.82 216.002 136.946 217.022 136.946C218.042 136.946 218.834 136.82 219.398 136.568C219.974 136.316 220.262 135.98 220.262 135.56V135.236C220.262 134.816 219.974 134.48 219.398 134.228C218.834 133.976 218.042 133.85 217.022 133.85ZM215.564 143.228H218.48V141.446H215.564V143.228Z" fill="#222A45"/>
<defs>
<linearGradient id="paint0_linear_0_1" x1="875.568" y1="142.326" x2="893.931" y2="160.435" gradientUnits="userSpaceOnUse">
<stop stop-color="#387EB8"/>
<stop offset="1" stop-color="#366994"/>
</linearGradient>
<linearGradient id="paint1_linear_0_1" x1="886.796" y1="154" x2="906.511" y2="172.566" gradientUnits="userSpaceOnUse">
<stop stop-color="#FFE052"/>
<stop offset="1" stop-color="#FFC331"/>
</linearGradient>
<clipPath id="clip0_0_1">
<rect width="37" height="37" fill="white" transform="translate(872 139)"/>
</clipPath>
</defs>
</svg>
