<svg width="50" height="50" viewBox="0 0 50 50" fill="none" xmlns="http://www.w3.org/2000/svg">
<rect x="0.5" y="0.5" width="49" height="49" rx="3.5" fill="white" stroke="#5993F1"/>
<path d="M26.25 19.375H32.5V21.875H26.25V19.375ZM26.25 28.125H32.5V30.625H26.25V28.125ZM33.75 13.75H16.25C14.875 13.75 13.75 14.875 13.75 16.25V33.75C13.75 35.125 14.875 36.25 16.25 36.25H33.75C35.125 36.25 36.25 35.125 36.25 33.75V16.25C36.25 14.875 35.125 13.75 33.75 13.75ZM33.75 33.75H16.25V16.25H33.75V33.75ZM23.75 17.5H17.5V23.75H23.75V17.5ZM22.5 22.5H18.75V18.75H22.5V22.5ZM23.75 26.25H17.5V32.5H23.75V26.25ZM22.5 31.25H18.75V27.5H22.5V31.25Z" fill="#5993F1"/>
</svg>
