<svg className="inline-block cursor-pointer" width="148" height="40" viewBox="0 0 148 40" fill="none" xmlns="http://www.w3.org/2000/svg">
    <rect width="148" height="40" rx="20" fill="#3AC962"/>
    <g clip-path="url(#clip0_931_3123)">
    <rect x="29" y="13" width="16" height="15" fill="white"/>
    <path d="M25.6 8C25.6 8 24 8 24 9.6V30.4C24 30.4 24 32 25.6 32H46.4C46.4 32 48 32 48 30.4V9.6C48 9.6 48 8 46.4 8H25.6ZM29.015 13.6H33.795L38.22 20.058V13.6H42.985V26.4H38.205L33.78 19.943V26.4H29.015V13.6Z" fill="#3AC962"/>
    </g>
    <path d="M63.448 13.318H64.806V25.33H63.448V18.344H60.802V17.126H63.448V13.318ZM67.62 25.96H66.262V13.052H67.62V25.96ZM58.436 14.27V21.214H58.996C59.248 21.214 59.514 21.2093 59.794 21.2C60.0833 21.1907 60.3773 21.1767 60.676 21.158C60.9747 21.1393 61.2733 21.116 61.572 21.088C61.88 21.0507 62.174 21.0087 62.454 20.962L62.58 22.124C61.936 22.236 61.2687 22.3153 60.578 22.362C59.8873 22.3993 59.206 22.418 58.534 22.418H57.05V14.27H58.436ZM78.5002 25.96V13.052H79.8862V25.96H78.5002ZM73.0962 13.92C73.5722 13.92 74.0062 13.9993 74.3982 14.158C74.7995 14.3167 75.1449 14.5547 75.4342 14.872C75.7235 15.1893 75.9475 15.5813 76.1062 16.048C76.2742 16.5147 76.3582 17.056 76.3582 17.672V19.128C76.3582 19.744 76.2742 20.2853 76.1062 20.752C75.9475 21.2187 75.7235 21.6107 75.4342 21.928C75.1449 22.236 74.7995 22.4693 74.3982 22.628C74.0062 22.7867 73.5722 22.866 73.0962 22.866C72.6202 22.866 72.1815 22.7867 71.7802 22.628C71.3882 22.4693 71.0475 22.236 70.7582 21.928C70.4689 21.6107 70.2402 21.2187 70.0722 20.752C69.9135 20.2853 69.8342 19.744 69.8342 19.128V17.672C69.8342 17.056 69.9135 16.5147 70.0722 16.048C70.2402 15.572 70.4689 15.18 70.7582 14.872C71.0475 14.5547 71.3882 14.3167 71.7802 14.158C72.1815 13.9993 72.6202 13.92 73.0962 13.92ZM73.0962 21.62C73.3482 21.62 73.5909 21.5733 73.8242 21.48C74.0575 21.3867 74.2629 21.2327 74.4402 21.018C74.6175 20.8033 74.7575 20.528 74.8602 20.192C74.9722 19.8467 75.0282 19.4267 75.0282 18.932V17.868C75.0282 17.3733 74.9722 16.958 74.8602 16.622C74.7575 16.2767 74.6129 15.9967 74.4262 15.782C74.2489 15.5673 74.0435 15.4133 73.8102 15.32C73.5862 15.2267 73.3482 15.18 73.0962 15.18C72.8442 15.18 72.6015 15.2267 72.3682 15.32C72.1349 15.4133 71.9295 15.5673 71.7522 15.782C71.5749 15.9967 71.4302 16.2767 71.3182 16.622C71.2155 16.958 71.1642 17.3733 71.1642 17.868V18.932C71.1642 19.4267 71.2155 19.8467 71.3182 20.192C71.4302 20.528 71.5749 20.8033 71.7522 21.018C71.9295 21.2327 72.1349 21.3867 72.3682 21.48C72.6015 21.5733 72.8442 21.62 73.0962 21.62ZM91.3404 25.96V18.764H88.7924V22.558H82.6604V14.116H84.0184V17.14H87.4344V14.116H88.7924V17.56H91.3404V13.052H92.7264V25.96H91.3404ZM84.0184 21.368H87.4344V18.33H84.0184V21.368ZM102.473 19.604C102.407 19.7627 102.309 19.926 102.179 20.094C102.048 20.262 101.871 20.4673 101.647 20.71C101.357 21.0273 101.035 21.368 100.681 21.732C100.326 22.0867 99.9106 22.4833 99.4346 22.922L98.5246 21.984C98.9446 21.6013 99.3272 21.2373 99.6726 20.892C100.027 20.5467 100.363 20.1967 100.681 19.842C100.914 19.59 101.101 19.3613 101.241 19.156C101.381 18.9507 101.488 18.75 101.563 18.554C101.637 18.358 101.689 18.1573 101.717 17.952C101.745 17.7467 101.759 17.5133 101.759 17.252V15.418H98.9866V14.214H105.861V15.418H103.159V17.252C103.159 17.532 103.173 17.7747 103.201 17.98C103.229 18.1853 103.28 18.3813 103.355 18.568C103.439 18.7547 103.555 18.9507 103.705 19.156C103.854 19.352 104.055 19.5853 104.307 19.856C104.605 20.1827 104.909 20.4953 105.217 20.794C105.534 21.0927 105.903 21.424 106.323 21.788L105.413 22.726C104.937 22.2873 104.54 21.914 104.223 21.606C103.905 21.2887 103.611 20.9853 103.341 20.696C103.145 20.4813 102.967 20.2807 102.809 20.094C102.65 19.9073 102.543 19.744 102.487 19.604H102.473ZM107.611 25.96V13.052H108.997V25.96H107.611ZM121.249 20.206H117.539V23.062H122.761V24.238H110.917V23.062H116.139V20.206H112.513V14.13H121.095V15.306H113.899V19.03H121.249V20.206Z" fill="white"/>
    <defs>
    <clipPath id="clip0_931_3123">
    <rect width="24" height="24" fill="white" transform="translate(24 8)"/>
    </clipPath>
    </defs>
</svg>