<svg width="50" height="50" viewBox="0 0 50 50" fill="none" xmlns="http://www.w3.org/2000/svg">
<rect x="0.5" y="0.5" width="49" height="49" rx="3.5" fill="white" stroke="#5993F1"/>
<path d="M35 11.25V15H38.75V17.5H35V21.25H32.5V17.5H28.75V15H32.5V11.25H35ZM25 26.25C23.625 26.25 22.5 25.125 22.5 23.75C22.5 22.375 23.625 21.25 25 21.25C26.375 21.25 27.5 22.375 27.5 23.75C27.5 25.125 26.375 26.25 25 26.25ZM26.25 13.825V16.35C25.8365 16.2847 25.4186 16.2512 25 16.25C20.8125 16.25 17.5 19.4625 17.5 24C17.5 26.925 19.9375 30.8 25 35.425C30.0625 30.8 32.5 26.9375 32.5 24V23.75H35V24C35 28.15 31.6625 33.0625 25 38.75C18.3375 33.0625 15 28.15 15 24C15 17.775 19.75 13.75 25 13.75C25.425 13.75 25.8375 13.775 26.25 13.825Z" fill="#5993F1"/>
</svg>
