<svg width="156" height="135" viewBox="0 0 156 135" fill="none" xmlns="http://www.w3.org/2000/svg">
<g clip-path="url(#clip0_87_580)">
<path d="M156 65.5869C156 95.6217 129.477 120.94 93.2848 128.712C87.4071 129.972 81.4359 130.749 75.4309 131.037C75.1388 131.051 74.8466 131.066 74.5525 131.076C72.9896 131.141 71.415 131.173 69.8287 131.174C67.0704 131.174 64.3448 131.076 61.6518 130.881C60.1578 130.775 58.6764 130.64 57.2075 130.475C42.9215 128.879 29.7747 124.615 18.6705 118.368C17.283 117.589 15.9282 116.778 14.606 115.936C12.185 114.401 9.84765 112.738 7.60382 110.955C-7.22888 99.1765 5.13764 74.0352 12.868 58.2071C33.7327 15.4872 22.2384 0 69.8287 0C117.419 0 156 29.3634 156 65.5869Z" fill="#EAEAEA"/>
<path d="M121.894 27.0387C107.103 26.7745 107.105 4.87331 121.895 4.61121C136.686 4.87546 136.683 26.7766 121.894 27.0387Z" fill="white"/>
<path d="M93.9215 59.6763C79.13 59.412 79.1324 37.5109 93.922 37.2488C108.713 37.513 108.711 59.4142 93.9215 59.6763Z" fill="white"/>
<path d="M123.1 92.8179C108.309 92.5536 108.311 70.6525 123.101 70.3904C137.892 70.6546 137.889 92.5558 123.1 92.8179Z" fill="white"/>
<path d="M121.894 27.0387C107.103 26.7745 107.105 4.87331 121.895 4.61121C136.686 4.87546 136.683 26.7766 121.894 27.0387ZM121.894 5.29081C107.999 5.53911 108.001 26.1128 121.895 26.3591C135.789 26.1108 135.787 5.53709 121.894 5.29081Z" fill="#E6E6E6"/>
<path d="M57.1554 130.319C57.1222 130.214 57.0992 130.105 57.0867 129.995L52.7906 105.59C52.7842 105.527 52.7745 105.464 52.7614 105.403C52.6705 104.958 52.4439 104.552 52.1127 104.24C51.7814 103.928 51.3617 103.726 50.9107 103.661L26.4134 103.767C25.9499 103.697 25.4763 103.778 25.0619 103.996C24.6474 104.214 24.3139 104.558 24.1099 104.979C23.7115 105.806 23.3213 106.645 22.9395 107.496C21.3933 110.924 19.9704 114.548 18.6705 118.368C29.7748 124.615 42.9216 128.879 57.2076 130.475L57.1554 130.319Z" fill="#2F2E41"/>
<path d="M81.069 65.0108C81.0087 65.2747 80.9695 65.5429 80.9515 65.8129L59.8667 77.9321L54.7417 74.9925L49.2782 82.1188L57.8434 88.2012C58.5353 88.6925 59.3686 88.947 60.218 88.9264C61.0675 88.9058 61.8873 88.6112 62.5545 88.0868L84.2965 70.9972C85.2777 71.3591 86.3463 71.4148 87.36 71.1568C88.3738 70.8989 89.2847 70.3395 89.9716 69.5532C90.6585 68.7669 91.0888 67.7908 91.2054 66.7549C91.3219 65.7189 91.1192 64.6721 90.624 63.7538C90.1289 62.8355 89.3649 62.0891 88.4336 61.6139C87.5024 61.1388 86.448 60.9573 85.4107 61.0938C84.3734 61.2303 83.4024 61.6781 82.6269 62.3778C81.8513 63.0775 81.3079 63.9959 81.069 65.0108V65.0108Z" fill="#FFB8B8"/>
<path d="M59.5779 76.7211C59.514 76.4111 59.3838 76.1184 59.1962 75.8631C59.0086 75.6077 58.7681 75.3955 58.4909 75.2409L48.8159 69.8505C47.5303 68.8622 45.9037 68.4221 44.2929 68.6267C42.6821 68.8314 41.2185 69.664 40.2229 70.9421C39.2273 72.2203 38.781 73.8396 38.9818 75.445C39.1826 77.0505 40.0142 78.5111 41.2942 79.5067L49.0078 87.4873C49.228 87.7151 49.4949 87.8931 49.7903 88.0089C50.0857 88.1248 50.4026 88.1759 50.7196 88.1587C51.0366 88.1415 51.3462 88.0565 51.6272 87.9095C51.9083 87.7624 52.1542 87.5567 52.3483 87.3064L53.8505 85.3648L54.3638 84.7037L59.1627 78.5068C59.3379 78.2806 59.4663 78.022 59.5403 77.7459C59.6342 77.4121 59.6471 77.0608 59.5779 76.7211Z" fill="#5993F1"/>
<path d="M45.5695 60.2846C50.2774 55.594 50.2774 47.989 45.5695 43.2984C40.8616 38.6077 33.2286 38.6077 28.5207 43.2984C23.8128 47.989 23.8128 55.594 28.5207 60.2846C33.2286 64.9753 40.8616 64.9753 45.5695 60.2846Z" fill="#FFB8B8"/>
<path d="M52.2878 97.2536C52.7718 96.5323 55.8494 91.6637 54.6851 85.9573C54.5996 85.5343 54.4924 85.1159 54.3638 84.7038C53.8151 82.9861 52.9388 81.3902 51.7828 80.0036C51.7975 79.621 51.7933 79.2448 51.7704 78.8706V78.8685C51.6002 76.2686 50.4931 73.8174 48.6528 71.9663C46.8126 70.1152 44.3631 68.9888 41.7553 68.7945L28.2725 67.7738C26.5371 67.6328 24.7932 67.9141 23.1911 68.5935C21.589 69.2728 20.1765 70.3299 19.0753 71.6737C18.8217 71.98 18.5842 72.2992 18.3638 72.63C18.3635 72.63 18.3633 72.63 18.363 72.6301C18.3628 72.6302 18.3625 72.6304 18.3623 72.6306C18.3622 72.6308 18.362 72.631 18.3619 72.6312C18.3618 72.6315 18.3618 72.6318 18.3618 72.632C17.5116 73.9104 16.9475 75.356 16.7078 76.8708C16.468 78.3855 16.5582 79.934 16.9721 81.4109L17.087 81.914L18.5245 88.1941L20.9281 98.7026L22.9395 107.496L23.1523 108.423C23.2645 108.909 23.5384 109.342 23.9294 109.653C24.3204 109.963 24.8054 110.133 25.3055 110.134C25.4257 110.135 25.5458 110.125 25.6644 110.105L51.7537 105.843C52.1218 105.785 52.4688 105.633 52.7614 105.403C52.9371 105.263 53.0911 105.099 53.2184 104.914C53.3884 104.669 53.5061 104.392 53.5642 104.1C53.6223 103.808 53.6197 103.507 53.5563 103.216L52.2878 97.2536Z" fill="#5993F1"/>
<path d="M0.943372 132.723C0.500863 132.094 0.202129 131.376 0.0682138 130.62C-0.0657019 129.863 -0.031542 129.087 0.168287 128.345C0.368116 127.603 0.728755 126.914 1.2248 126.326C1.72084 125.738 2.34022 125.266 3.03932 124.942L17.8936 79.4396L26.5019 83.5093L10.249 127.815C10.7168 129.021 10.7242 130.356 10.2699 131.568C9.81559 132.779 8.93112 133.782 7.78409 134.387C6.63705 134.992 5.30713 135.157 4.04635 134.85C2.78556 134.543 1.6815 133.786 0.943372 132.723Z" fill="#FFB8B8"/>
<path d="M26.4009 68.6906C24.8095 68.2136 23.0959 68.3547 21.6048 69.0856C20.1137 69.8164 18.9557 71.0828 18.3638 72.6299C18.3635 72.6299 18.3632 72.63 18.363 72.6301C18.3627 72.6302 18.3625 72.6303 18.3623 72.6305C18.3621 72.6307 18.362 72.631 18.3619 72.6312C18.3618 72.6315 18.3617 72.6317 18.3617 72.632C18.3074 72.7713 18.2574 72.9168 18.2136 73.0623L16.9554 75.7211L13.1539 83.7558C13.0086 84.0619 12.9313 84.3957 12.9273 84.7343C12.9233 85.0729 12.9927 85.4084 13.1307 85.7179C13.2688 86.0273 13.4723 86.3034 13.7272 86.5274C13.9822 86.7513 14.2827 86.9178 14.6081 87.0154L15.3489 87.2378L18.5244 88.1941L24.1601 89.8904L26.0379 90.4558C26.3632 90.5538 26.7059 90.5807 27.0427 90.5347C27.3794 90.4888 27.7022 90.371 27.9892 90.1895C28.2761 90.008 28.5204 89.767 28.7054 89.4829C28.8903 89.1988 29.0117 88.8784 29.0611 88.5433L30.7971 76.8105C31.2903 75.1529 31.1047 73.3682 30.2809 71.8466C29.4571 70.325 28.0621 69.1903 26.4009 68.6906Z" fill="#5993F1"/>
<path d="M48.1147 47.4237C43.8191 51.1677 37.2245 52.037 32.0994 49.5349C34.4017 52.2561 38.7739 65.689 38.7739 65.689C38.7739 65.689 26.4284 64.3963 24.6842 64.0247C14.3821 61.8298 18.1268 35.2471 29.1042 35.3813C30.9635 35.404 32.5889 35.628 33.8264 37.0107C34.6478 34.7168 37.2596 33.3655 39.6978 33.5404C42.136 33.7153 44.3409 35.1745 45.9094 37.0426C47.1611 38.5549 48.0645 40.3224 48.5561 42.2205C49.0476 44.1185 49.1153 46.1009 48.7544 48.0279L48.1147 47.4237Z" fill="#2F2E41"/>
<path d="M93.9215 59.6763C79.1301 59.412 79.1324 37.5109 93.922 37.2488C108.713 37.513 108.711 59.4142 93.9215 59.6763ZM93.9215 37.9284C80.0265 38.1767 80.0287 58.7504 93.922 58.9967C107.816 58.7484 107.814 38.1747 93.9215 37.9284Z" fill="#E6E6E6"/>
<path d="M123.1 92.8179C108.309 92.5536 108.311 70.6525 123.101 70.3904C137.892 70.6546 137.889 92.5558 123.1 92.8179ZM123.1 71.07C109.205 71.3183 109.207 91.892 123.101 92.1383C136.995 91.89 136.993 71.3163 123.1 71.07Z" fill="#E6E6E6"/>
<path d="M125.019 13.4299C124.086 13.4416 124.089 11.9801 125.023 11.9959C125.956 11.9843 125.953 13.4455 125.019 13.4299Z" fill="white"/>
<path d="M121.894 13.9088C124.39 13.8723 124.39 17.7781 121.894 17.7413C119.399 17.7774 119.399 13.8723 121.894 13.9088ZM121.894 12.9508C118.152 12.8964 118.151 18.7542 121.895 18.6993C125.638 18.7538 125.637 12.8959 121.894 12.9508V12.9508Z" fill="white"/>
<path d="M102.782 83.4949C102.715 83.4968 102.648 83.4788 102.591 83.4431C102.534 83.4074 102.489 83.3556 102.461 83.2943C102.434 83.233 102.425 83.165 102.437 83.0988C102.448 83.0326 102.479 82.9713 102.525 82.9226L103.661 81.7272C103.696 81.6896 103.715 81.6396 103.714 81.588C103.712 81.5364 103.691 81.4875 103.653 81.4519L102.447 80.3145C102.413 80.283 102.386 80.2454 102.368 80.2036C102.349 80.1618 102.339 80.1167 102.337 80.071C102.336 80.0252 102.344 79.9797 102.36 79.937C102.377 79.8942 102.401 79.8551 102.433 79.8219C102.497 79.7552 102.584 79.7162 102.676 79.7134C102.769 79.7106 102.858 79.7441 102.926 79.8068L104.549 81.3178C104.581 81.3475 104.606 81.3834 104.624 81.4231C104.642 81.4629 104.652 81.5058 104.654 81.5494C104.655 81.593 104.647 81.6364 104.631 81.6771C104.616 81.7178 104.592 81.755 104.562 81.7865L103.019 83.3907C102.957 83.4552 102.872 83.4926 102.782 83.4949Z" fill="#CCCCCC"/>
<path d="M101.542 81.7551C101.505 81.7891 101.457 81.8085 101.407 81.8098L97.6228 81.9138C97.5954 81.9146 97.5681 81.91 97.5425 81.9002C97.5169 81.8905 97.4934 81.8758 97.4735 81.8571C97.4536 81.8383 97.4376 81.8158 97.4264 81.7909C97.4152 81.7659 97.409 81.7391 97.4083 81.7118C97.4075 81.6844 97.4122 81.6573 97.422 81.6317C97.4318 81.6062 97.4465 81.5829 97.4654 81.5631C97.4843 81.5432 97.5068 81.5273 97.5319 81.5162C97.5569 81.5051 97.5839 81.499 97.6113 81.4982L101.395 81.3943C101.438 81.3931 101.479 81.4049 101.515 81.4281C101.551 81.4512 101.578 81.4847 101.594 81.5239C101.61 81.5631 101.614 81.6063 101.604 81.6476C101.595 81.6889 101.573 81.7264 101.542 81.7551Z" fill="#CCCCCC"/>
<path d="M73.5715 50.3533C73.5041 50.3552 73.4377 50.3372 73.3806 50.3015C73.3235 50.2658 73.2784 50.214 73.2509 50.1527C73.2234 50.0914 73.2147 50.0234 73.2261 49.9572C73.2374 49.891 73.2682 49.8297 73.3146 49.781L74.45 48.5856C74.4856 48.548 74.5047 48.498 74.5033 48.4464C74.5019 48.3948 74.48 48.3459 74.4424 48.3103L73.2361 47.1729C73.2027 47.1414 73.1759 47.1037 73.1572 47.062C73.1384 47.0202 73.1281 46.9751 73.1268 46.9294C73.1256 46.8836 73.1334 46.8381 73.1498 46.7953C73.1662 46.7526 73.1909 46.7135 73.2224 46.6803C73.2861 46.6136 73.3735 46.5746 73.4658 46.5718C73.558 46.569 73.6477 46.6025 73.7153 46.6652L75.3381 48.1762C75.3701 48.2059 75.3959 48.2418 75.4139 48.2815C75.4318 48.3213 75.4417 48.3642 75.4429 48.4078C75.4441 48.4514 75.4367 48.4948 75.4209 48.5355C75.4051 48.5762 75.3814 48.6134 75.3511 48.6449L73.808 50.2492C73.746 50.3136 73.661 50.351 73.5715 50.3533Z" fill="#CCCCCC"/>
<path d="M72.3314 48.6135C72.2944 48.6475 72.2463 48.667 72.1959 48.6683L68.4121 48.7722C68.3847 48.773 68.3574 48.7684 68.3318 48.7587C68.3062 48.749 68.2828 48.7343 68.2628 48.7155C68.2429 48.6968 68.2269 48.6743 68.2157 48.6493C68.2045 48.6244 68.1983 48.5975 68.1976 48.5702C68.1968 48.5429 68.2015 48.5157 68.2113 48.4902C68.2211 48.4647 68.2358 48.4414 68.2547 48.4215C68.2736 48.4017 68.2962 48.3858 68.3212 48.3746C68.3462 48.3635 68.3732 48.3574 68.4006 48.3567L72.1844 48.2528C72.2269 48.2516 72.2687 48.2634 72.3043 48.2865C72.3399 48.3097 72.3675 48.3431 72.3835 48.3824C72.3995 48.4216 72.4031 48.4647 72.3938 48.5061C72.3845 48.5474 72.3627 48.5849 72.3314 48.6135Z" fill="#CCCCCC"/>
<path d="M101.53 17.7157C101.463 17.7177 101.396 17.6996 101.339 17.6639C101.282 17.6282 101.237 17.5764 101.21 17.5152C101.182 17.4539 101.173 17.3858 101.185 17.3196C101.196 17.2535 101.227 17.1921 101.273 17.1434L102.409 15.948C102.444 15.9105 102.463 15.8604 102.462 15.8088C102.461 15.7572 102.439 15.7083 102.401 15.6728L101.195 14.5353C101.161 14.5039 101.135 14.4662 101.116 14.4244C101.097 14.3826 101.087 14.3376 101.086 14.2918C101.084 14.2461 101.092 14.2005 101.109 14.1578C101.125 14.115 101.15 14.0759 101.181 14.0427C101.245 13.976 101.332 13.9371 101.424 13.9342C101.517 13.9314 101.606 13.965 101.674 14.0276L103.297 15.5386C103.329 15.5684 103.355 15.6042 103.373 15.644C103.391 15.6837 103.4 15.7267 103.402 15.7703C103.403 15.8139 103.395 15.8573 103.38 15.898C103.364 15.9387 103.34 15.9758 103.31 16.0073L101.767 17.6116C101.705 17.676 101.62 17.7134 101.53 17.7157Z" fill="#CCCCCC"/>
<path d="M100.29 15.976C100.253 16.01 100.205 16.0294 100.155 16.0307L96.3709 16.1347C96.3435 16.1355 96.3162 16.1309 96.2906 16.1211C96.2649 16.1114 96.2415 16.0967 96.2216 16.078C96.2016 16.0592 96.1856 16.0367 96.1744 16.0118C96.1632 15.9868 96.1571 15.9599 96.1563 15.9326C96.1556 15.9053 96.1602 15.8781 96.17 15.8526C96.1798 15.8271 96.1946 15.8038 96.2134 15.7839C96.2323 15.7641 96.2549 15.7482 96.2799 15.7371C96.305 15.7259 96.332 15.7199 96.3594 15.7191L100.143 15.6152C100.186 15.614 100.227 15.6258 100.263 15.649C100.299 15.6721 100.326 15.7056 100.342 15.7448C100.358 15.784 100.362 15.8272 100.353 15.8685C100.343 15.9098 100.321 15.9473 100.29 15.976Z" fill="#CCCCCC"/>
<path d="M97.656 123.665C96.6774 125.69 95.0833 127.328 93.2848 128.712C87.4071 129.972 81.4359 130.749 75.4309 131.037C75.1388 131.051 74.8466 131.066 74.5525 131.076C72.9896 131.141 71.415 131.173 69.8287 131.174C67.0704 131.174 64.3448 131.076 61.6518 130.881C61.5493 130.264 61.5352 129.635 61.61 129.014C61.9084 126.584 63.7591 124.351 66.1606 123.836C68.5622 123.32 71.2996 124.748 72.0278 127.085C72.4305 122.578 72.8916 117.884 75.2973 114.046C77.4735 110.573 81.2437 108.086 85.3311 107.641C87.7333 107.392 90.1569 107.835 92.3146 108.916C92.5128 109.016 92.7089 109.12 92.9029 109.228C94.198 109.959 95.3404 110.931 96.2685 112.09C98.8181 115.304 99.442 119.977 97.656 123.665Z" fill="white"/>
<path d="M92.9029 109.228C92.908 109.282 92.8987 109.337 92.8761 109.387C92.8534 109.437 92.8181 109.48 92.7737 109.512C85.532 115.386 79.6213 122.722 75.4309 131.037C75.1388 131.051 74.8466 131.066 74.5525 131.076C74.9238 130.326 75.3091 129.583 75.7084 128.848C77.782 125.041 80.2214 121.444 82.9922 118.106C85.7626 114.767 88.8557 111.707 92.227 108.97C92.2537 108.948 92.2832 108.93 92.3146 108.916C92.3734 108.891 92.437 108.879 92.5009 108.882C92.5648 108.885 92.6272 108.901 92.6837 108.931C92.7401 108.961 92.7891 109.003 92.8271 109.055C92.865 109.106 92.8909 109.165 92.9029 109.228Z" fill="#EAEAEA"/>
<path d="M123.5 76C127.09 76 130 78.2783 130 81.0894C130 83.8999 127.09 86.1782 123.5 86.1782C123.143 86.1784 122.785 86.1555 122.431 86.1098L119.702 87.9024C119.392 88.0672 119.282 88.0492 119.41 87.6456L119.962 85.3587C118.179 84.4508 117 82.8777 117 81.0894C117 78.2789 119.91 76 123.5 76ZM127.157 81.0117L128.067 80.1262C128.119 80.0715 128.149 79.9984 128.148 79.9223C128.148 79.8463 128.119 79.7732 128.066 79.7186C128.014 79.664 127.942 79.632 127.866 79.6294C127.791 79.6268 127.717 79.6538 127.661 79.7047L126.467 80.8649V79.9061C126.467 79.8283 126.436 79.7536 126.382 79.6986C126.327 79.6436 126.252 79.6126 126.175 79.6126C126.097 79.6126 126.023 79.6436 125.968 79.6986C125.913 79.7536 125.883 79.8283 125.883 79.9061V81.4961C125.872 81.5414 125.872 81.5887 125.883 81.6341V82.5289C125.883 82.6067 125.913 82.6814 125.968 82.7364C126.023 82.7914 126.097 82.8224 126.175 82.8224C126.252 82.8224 126.327 82.7914 126.382 82.7364C126.436 82.6814 126.467 82.6067 126.467 82.5289V81.6814L126.731 81.4246L127.615 82.6887C127.638 82.7202 127.666 82.7471 127.698 82.7678C127.73 82.7885 127.767 82.8025 127.804 82.8092C127.842 82.8158 127.881 82.8149 127.918 82.8065C127.956 82.7981 127.991 82.7823 128.023 82.7602C128.054 82.738 128.081 82.7098 128.102 82.6773C128.122 82.6447 128.136 82.6084 128.143 82.5704C128.149 82.5324 128.148 82.4935 128.14 82.4559C128.132 82.4182 128.116 82.3826 128.094 82.351L127.157 81.0111V81.0117ZM125.326 82.208H124.422V79.9155C124.418 79.84 124.386 79.7689 124.332 79.7167C124.277 79.6646 124.205 79.6355 124.13 79.6355C124.055 79.6355 123.982 79.6646 123.928 79.7167C123.874 79.7689 123.841 79.84 123.838 79.9155V82.5015C123.838 82.6632 123.968 82.795 124.13 82.795H125.326C125.403 82.795 125.477 82.7641 125.532 82.709C125.587 82.654 125.618 82.5793 125.618 82.5015C125.618 82.4237 125.587 82.349 125.532 82.294C125.477 82.2389 125.403 82.208 125.326 82.208ZM121.7 81.529L122.131 80.4676L122.526 81.529H121.7ZM123.262 81.8325L123.263 81.8225C123.263 81.7486 123.235 81.6774 123.184 81.6235L122.537 79.8825C122.51 79.7995 122.458 79.7269 122.389 79.6742C122.319 79.6215 122.235 79.5914 122.149 79.5878C122.061 79.5874 121.976 79.6138 121.903 79.6634C121.831 79.7131 121.776 79.7836 121.744 79.8657L120.716 82.3995C120.702 82.4352 120.694 82.4734 120.694 82.512C120.695 82.5505 120.702 82.5886 120.717 82.6242C120.732 82.6597 120.754 82.692 120.781 82.7191C120.808 82.7462 120.841 82.7677 120.876 82.7822C120.912 82.7968 120.95 82.8042 120.988 82.804C121.026 82.8039 121.064 82.7961 121.1 82.7811C121.135 82.7662 121.167 82.7444 121.194 82.7171C121.221 82.6897 121.243 82.6572 121.257 82.6215L121.461 82.116H122.743L122.928 82.6134C122.941 82.6506 122.96 82.6849 122.986 82.7142C123.012 82.7435 123.044 82.7673 123.079 82.7841C123.115 82.801 123.153 82.8105 123.192 82.8122C123.231 82.8139 123.27 82.8077 123.307 82.7939C123.343 82.7802 123.377 82.7592 123.405 82.7322C123.434 82.7052 123.457 82.6728 123.472 82.6369C123.488 82.6009 123.496 82.5621 123.497 82.5229C123.497 82.4836 123.49 82.4446 123.475 82.4082L123.262 81.8325ZM121.205 79.9186C121.205 79.8408 121.174 79.7663 121.12 79.7113C121.065 79.6562 120.991 79.6252 120.914 79.6251H118.905C118.827 79.6251 118.753 79.656 118.698 79.711C118.643 79.7661 118.613 79.8407 118.613 79.9186C118.613 79.9964 118.643 80.0711 118.698 80.1261C118.753 80.1811 118.827 80.2121 118.905 80.2121H119.623V82.5351C119.623 82.6129 119.654 82.6876 119.708 82.7426C119.763 82.7977 119.838 82.8286 119.915 82.8286C119.993 82.8286 120.067 82.7977 120.122 82.7426C120.177 82.6876 120.207 82.6129 120.207 82.5351V80.2121H120.913C120.99 80.2121 121.065 80.1811 121.12 80.1261C121.174 80.0711 121.205 79.9964 121.205 79.9186Z" fill="#3F3D56"/>
<path fill-rule="evenodd" clip-rule="evenodd" d="M100.123 48.499C100.123 49.9826 99.5921 51.4177 98.6252 52.546C97.6583 53.6744 96.319 54.422 94.8483 54.6544V50.3013H96.3047L96.5822 48.499H94.8483C94.7899 46.9981 94.7315 46.1561 96.6552 46.3578V44.8257C93.7738 44.1937 92.5719 45.6489 92.8954 48.499H91.3076V50.3013H92.8954V54.6523C85.4217 53.5069 86.3001 42.2417 93.8698 42.2708C94.6908 42.2706 95.5039 42.4316 96.2625 42.7445C97.0211 43.0574 97.7104 43.5162 98.291 44.0945C98.8717 44.6729 99.3324 45.3595 99.6467 46.1152C99.961 46.8709 100.123 47.6809 100.123 48.499Z" fill="#3F3D56"/>
<g clip-path="url(#clip1_87_580)">
<path d="M123.781 16.352L120.073 11H117V21H120.219V15.648L123.927 21H127V11H123.781V16.352Z" fill="#3F3D56"/>
</g>
</g>
<defs>
<clipPath id="clip0_87_580">
<rect width="156" height="135" fill="white"/>
</clipPath>
<clipPath id="clip1_87_580">
<rect width="10" height="10" fill="white" transform="translate(117 11)"/>
</clipPath>
</defs>
</svg>
