<svg width="628" height="498" viewBox="0 0 628 498" fill="none" xmlns="http://www.w3.org/2000/svg">
<path d="M551.91 247.177H548.492V245.419H551.91V247.177ZM551.861 250.654H548.452V248.896H551.861V250.654ZM548.345 244.882H538.492V243.144H548.345V244.882ZM543.511 245.498C544.299 245.498 545.005 245.631 545.63 245.898C546.262 246.165 546.753 246.542 547.105 247.031C547.456 247.519 547.632 248.076 547.632 248.701C547.632 249.332 547.456 249.889 547.105 250.371C546.753 250.846 546.262 251.217 545.63 251.484C545.005 251.751 544.299 251.884 543.511 251.884C542.71 251.884 541.997 251.751 541.372 251.484C540.754 251.217 540.272 250.846 539.927 250.371C539.589 249.889 539.423 249.332 539.429 248.701C539.423 248.076 539.592 247.519 539.937 247.031C540.282 246.542 540.764 246.165 541.382 245.898C542.001 245.631 542.71 245.498 543.511 245.498ZM543.511 247.138C543.088 247.138 542.723 247.2 542.417 247.324C542.111 247.447 541.87 247.63 541.695 247.871C541.525 248.105 541.441 248.382 541.441 248.701C541.441 249.026 541.525 249.309 541.695 249.55C541.87 249.785 542.111 249.97 542.417 250.107C542.73 250.237 543.094 250.302 543.511 250.302C543.921 250.302 544.286 250.237 544.605 250.107C544.924 249.97 545.171 249.785 545.347 249.55C545.523 249.309 545.614 249.026 545.62 248.701C545.614 248.382 545.523 248.105 545.347 247.871C545.171 247.63 544.924 247.447 544.605 247.324C544.286 247.2 543.921 247.138 543.511 247.138ZM544.615 244.306H542.447V241.386H544.615V244.306ZM553.247 252.021H551.079V241.533H553.247V252.021ZM543.658 254.199H551.089V252.705H553.247V258.964H541.49V252.705H543.658V254.199ZM551.089 257.275V255.83H543.658V257.275H551.089ZM557.759 250.078C559.563 250.084 560.965 250.061 561.968 250.009C562.977 249.951 563.973 249.83 564.956 249.648L565.161 251.396C564.159 251.565 563.14 251.676 562.105 251.728C561.07 251.78 559.621 251.806 557.759 251.806H556.46V250.078H557.759ZM564.185 247.9H558.609V251.181H556.46V246.289H562.017V244.296H556.431V242.587H564.185V247.9ZM570.533 252.412H568.365V241.552H570.533V252.412ZM568.794 245.791H565.249V244.052H568.794V245.791ZM568.794 249.511H565.249V247.763H568.794V249.511ZM570.533 259.199H568.365V254.99H558.462V253.242H570.533V259.199Z" fill="black"/>
<path d="M487.726 398.739H485.568V389.735H487.726V398.739ZM487.746 404.139H478.195V406.171H476.076V402.518H485.578V401.239H476.037V399.55H487.746V404.139ZM488.273 407.235H476.076V405.507H488.273V407.235ZM479.211 391.512C479.204 392.626 479.002 393.664 478.605 394.628C478.208 395.585 477.629 396.421 476.867 397.137C476.105 397.854 475.19 398.381 474.123 398.719L473.029 397.01C473.96 396.718 474.754 396.291 475.412 395.731C476.069 395.165 476.564 394.52 476.896 393.798C477.228 393.068 477.394 392.307 477.394 391.512V390.175H479.211V391.512ZM479.64 391.512C479.634 392.281 479.793 393.01 480.119 393.7C480.451 394.39 480.936 394.999 481.574 395.526C482.218 396.047 483 396.444 483.918 396.718L482.853 398.397C481.786 398.072 480.874 397.57 480.119 396.893C479.37 396.216 478.801 395.419 478.41 394.501C478.019 393.583 477.824 392.587 477.824 391.512V390.175H479.64V391.512ZM505.431 400.829H503.361V389.735H505.431V400.829ZM503.927 396.034H500.871V394.257H503.927V396.034ZM501.642 400.233H499.611V390.077H501.642V400.233ZM499.025 393.358H490.246V391.649H499.025V393.358ZM494.66 394.071C495.402 394.071 496.063 394.198 496.642 394.452C497.222 394.699 497.674 395.057 498 395.526C498.325 395.988 498.488 396.522 498.488 397.128C498.488 397.727 498.325 398.254 498 398.71C497.674 399.165 497.222 399.52 496.642 399.774C496.063 400.028 495.402 400.155 494.66 400.155C493.924 400.155 493.267 400.028 492.687 399.774C492.114 399.52 491.665 399.165 491.34 398.71C491.021 398.254 490.861 397.727 490.861 397.128C490.861 396.522 491.021 395.988 491.34 395.526C491.665 395.057 492.114 394.699 492.687 394.452C493.267 394.198 493.924 394.071 494.66 394.071ZM494.66 395.634C494.295 395.634 493.973 395.695 493.693 395.819C493.413 395.936 493.192 396.109 493.029 396.337C492.873 396.558 492.795 396.822 492.795 397.128C492.795 397.421 492.873 397.681 493.029 397.909C493.185 398.13 493.403 398.303 493.683 398.427C493.963 398.544 494.289 398.602 494.66 398.602C495.024 398.602 495.347 398.544 495.627 398.427C495.913 398.303 496.134 398.13 496.291 397.909C496.447 397.681 496.525 397.421 496.525 397.128C496.525 396.822 496.447 396.558 496.291 396.337C496.134 396.109 495.913 395.936 495.627 395.819C495.347 395.695 495.024 395.634 494.66 395.634ZM495.724 392.782H493.566V389.891H495.724V392.782ZM499.474 401.053C500.731 401.053 501.812 401.177 502.717 401.425C503.621 401.665 504.315 402.027 504.797 402.509C505.278 402.984 505.519 403.557 505.519 404.227C505.519 404.885 505.278 405.448 504.797 405.917C504.315 406.392 503.618 406.75 502.707 406.991C501.802 407.238 500.724 407.362 499.474 407.362C498.218 407.362 497.134 407.238 496.222 406.991C495.317 406.75 494.624 406.392 494.142 405.917C493.661 405.448 493.423 404.885 493.429 404.227C493.423 403.557 493.661 402.984 494.142 402.509C494.624 402.027 495.317 401.665 496.222 401.425C497.134 401.177 498.218 401.053 499.474 401.053ZM499.474 402.694C498.628 402.694 497.918 402.749 497.345 402.86C496.773 402.971 496.336 403.143 496.037 403.378C495.744 403.606 495.597 403.889 495.597 404.227C495.597 404.546 495.744 404.816 496.037 405.038C496.336 405.259 496.773 405.428 497.345 405.546C497.925 405.663 498.634 405.721 499.474 405.721C500.308 405.721 501.011 405.663 501.584 405.546C502.163 405.428 502.599 405.259 502.892 405.038C503.192 404.816 503.345 404.546 503.351 404.227C503.345 403.882 503.192 403.596 502.892 403.368C502.599 403.14 502.166 402.971 501.593 402.86C501.021 402.749 500.314 402.694 499.474 402.694ZM509.631 398.28C511.434 398.287 512.837 398.264 513.84 398.212C514.849 398.153 515.845 398.033 516.828 397.85L517.033 399.598C516.03 399.768 515.011 399.878 513.976 399.93C512.941 399.983 511.493 400.009 509.631 400.009H508.332V398.28H509.631ZM516.056 396.102H510.48V399.384H508.332V394.491H513.888V392.499H508.302V390.79H516.056V396.102ZM522.404 400.614H520.236V389.755H522.404V400.614ZM520.666 393.993H517.121V392.255H520.666V393.993ZM520.666 397.714H517.121V395.966H520.666V397.714ZM522.404 407.401H520.236V403.192H510.334V401.444H522.404V407.401Z" fill="black"/>
<path d="M296.708 16.1895H280.634V14.4023H296.708V16.1895ZM289.697 23.7285H287.509V15.877H289.697V23.7285ZM286.289 8.95312H281.904V7.21484H286.289V8.95312ZM287.724 8.26953C287.718 8.94661 287.695 9.59766 287.656 10.2227C287.623 10.8411 287.539 11.5801 287.402 12.4395C287.272 13.2988 287.07 14.2201 286.796 15.2031L284.658 14.8613C284.931 13.9238 285.133 13.0514 285.263 12.2441C285.4 11.4303 285.484 10.7337 285.517 10.1543C285.55 9.57487 285.572 8.93034 285.585 8.2207V8.11328V7.21484H287.724V8.11328V8.26953ZM293.72 8.95312H288.964V7.21484H293.72V8.95312ZM294.931 8.36719C294.925 9.08333 294.908 9.74414 294.882 10.3496C294.856 10.9486 294.788 11.6647 294.677 12.498C294.573 13.3314 294.414 14.2233 294.199 15.1738L292.08 14.8613C292.379 13.5853 292.568 12.459 292.646 11.4824C292.731 10.5059 292.776 9.49023 292.783 8.43555V8.28906V7.21484H294.931V8.28906V8.36719ZM306.396 8.34766C306.396 9.29818 306.113 10.1706 305.546 10.9648C304.986 11.7526 304.186 12.4134 303.144 12.9473C302.102 13.4746 300.891 13.8229 299.511 13.9922L298.72 12.2734C299.879 12.1367 300.895 11.8698 301.767 11.4727C302.646 11.0755 303.317 10.6068 303.779 10.0664C304.241 9.51953 304.472 8.94661 304.472 8.34766V7.87891H306.396V8.34766ZM307.412 8.34766C307.412 8.94661 307.646 9.51953 308.115 10.0664C308.583 10.6068 309.254 11.0755 310.126 11.4727C311.005 11.8698 312.027 12.1367 313.193 12.2734L312.382 13.9922C311.002 13.8229 309.788 13.4746 308.74 12.9473C307.698 12.4134 306.894 11.7526 306.328 10.9648C305.761 10.1771 305.475 9.30469 305.468 8.34766V7.87891H307.412V8.34766ZM312.548 8.61133H299.374V6.89258H312.548V8.61133ZM314.033 16.7266H297.9V14.9688H314.033V16.7266ZM307.216 19.9492H305.068V16.0723H307.216V19.9492ZM312.246 23.4062H299.843V21.6289H312.246V23.4062ZM302.021 22.2637H299.843V18.3184H302.021V22.2637ZM329.121 16.7266H326.953V6.08203H329.121V16.7266ZM331.591 12.3711H328.505V10.5547H331.591V12.3711ZM329.121 23.5137H317.724V17.5762H329.121V23.5137ZM319.873 21.7656H326.972V19.2852H319.873V21.7656ZM325.683 9.51953H315.205V7.78125H325.683V9.51953ZM320.449 10.1543C321.289 10.1543 322.034 10.2878 322.685 10.5547C323.343 10.8151 323.85 11.1862 324.208 11.668C324.573 12.1497 324.759 12.6999 324.765 13.3184C324.759 13.9434 324.573 14.4967 324.208 14.9785C323.85 15.4538 323.343 15.8281 322.685 16.1016C322.034 16.3685 321.289 16.502 320.449 16.502C319.596 16.502 318.841 16.3685 318.183 16.1016C317.532 15.8281 317.024 15.4538 316.66 14.9785C316.302 14.4967 316.123 13.9434 316.123 13.3184C316.123 12.6999 316.302 12.1497 316.66 11.668C317.024 11.1862 317.532 10.8151 318.183 10.5547C318.841 10.2878 319.596 10.1543 320.449 10.1543ZM320.449 11.8047C319.999 11.8047 319.606 11.8665 319.267 11.9902C318.935 12.1074 318.678 12.2799 318.496 12.5078C318.313 12.7357 318.222 13.0059 318.222 13.3184C318.222 13.6439 318.313 13.9238 318.496 14.1582C318.678 14.3926 318.935 14.5716 319.267 14.6953C319.606 14.819 319.999 14.8809 320.449 14.8809C320.898 14.8809 321.292 14.819 321.63 14.6953C321.969 14.5716 322.233 14.3926 322.421 14.1582C322.61 13.9238 322.705 13.6439 322.705 13.3184C322.705 13.0059 322.607 12.7357 322.412 12.5078C322.223 12.2799 321.959 12.1074 321.621 11.9902C321.289 11.8665 320.898 11.8047 320.449 11.8047ZM321.542 8.69922H319.365V5.97461H321.542V8.69922Z" fill="black"/>
<path d="M117.853 395.526H114.67V393.778H117.853V395.526ZM117.853 400.966H114.67V399.188H117.853V400.966ZM122.834 407.372H120.744V389.735H122.834V407.372ZM119.25 406.542H117.209V390.038H119.25V406.542ZM111.594 391.073C112.368 391.073 113.046 391.33 113.625 391.844C114.211 392.352 114.663 393.081 114.982 394.032C115.301 394.983 115.461 396.096 115.461 397.372C115.461 398.654 115.301 399.771 114.982 400.721C114.663 401.672 114.211 402.404 113.625 402.919C113.046 403.433 112.368 403.69 111.594 403.69C110.825 403.69 110.155 403.433 109.582 402.919C109.016 402.404 108.57 401.672 108.244 400.721C107.925 399.771 107.766 398.654 107.766 397.372C107.766 396.096 107.925 394.983 108.244 394.032C108.57 393.081 109.016 392.352 109.582 391.844C110.155 391.33 110.825 391.073 111.594 391.073ZM111.594 393.124C111.21 393.124 110.881 393.287 110.607 393.612C110.334 393.931 110.122 394.41 109.973 395.048C109.829 395.686 109.758 396.46 109.758 397.372C109.758 398.283 109.829 399.055 109.973 399.686C110.122 400.318 110.334 400.796 110.607 401.122C110.881 401.447 111.21 401.61 111.594 401.61C111.984 401.61 112.32 401.447 112.6 401.122C112.879 400.796 113.094 400.318 113.244 399.686C113.4 399.055 113.478 398.283 113.478 397.372C113.478 396.46 113.4 395.686 113.244 395.048C113.094 394.41 112.876 393.931 112.59 393.612C112.31 393.287 111.978 393.124 111.594 393.124ZM140.969 400.272H124.894V398.534H140.969V400.272ZM139.006 407.372H136.828V403.524H126.672V401.805H139.006V407.372ZM133.976 392.313H131.838V389.755H133.976V392.313ZM133.615 392.831C133.615 393.742 133.319 394.546 132.726 395.243C132.134 395.94 131.288 396.506 130.187 396.942C129.094 397.372 127.808 397.652 126.33 397.782L125.656 396.122C126.932 396.031 128.026 395.832 128.937 395.526C129.855 395.214 130.546 394.826 131.008 394.364C131.47 393.895 131.701 393.384 131.701 392.831V392.479H133.615V392.831ZM134.123 392.831C134.116 393.384 134.344 393.895 134.807 394.364C135.275 394.826 135.962 395.214 136.867 395.526C137.779 395.832 138.879 396.031 140.168 396.122L139.484 397.782C138 397.652 136.711 397.372 135.617 396.942C134.53 396.506 133.69 395.94 133.098 395.243C132.505 394.546 132.209 393.742 132.209 392.831V392.479H134.123V392.831ZM139.387 393.134H126.476V391.434H139.387V393.134Z" fill="black"/>
<path d="M470.294 89.9639C470.294 91.2725 470.089 92.5452 469.679 93.7822C469.276 95.0192 468.696 96.1227 467.941 97.0928C467.186 98.0628 466.31 98.7855 465.314 99.2607L464.035 97.5518C464.94 97.1221 465.737 96.5003 466.427 95.6865C467.117 94.8662 467.645 93.958 468.009 92.9619C468.38 91.9658 468.569 90.9665 468.576 89.9639V87.6396H470.294V89.9639ZM470.744 89.9639C470.737 90.9014 470.91 91.8389 471.261 92.7764C471.613 93.7074 472.121 94.557 472.785 95.3252C473.455 96.0934 474.243 96.6891 475.148 97.1123L473.927 98.8213C472.931 98.3525 472.062 97.6592 471.32 96.7412C470.578 95.8167 470.008 94.7653 469.611 93.5869C469.214 92.4085 469.015 91.2008 469.015 89.9639V87.6396H470.744V89.9639ZM474.435 88.4893H464.718V86.7119H474.435V88.4893ZM478.234 102.601H476.066V84.9639H478.234V102.601ZM480.959 93.665H477.746V91.8389H480.959V93.665ZM488.664 97.8447H486.486V93.9385H488.664V97.8447ZM496.496 98.333H494.328V84.9834H496.496V98.333ZM496.906 102.288H483.957V100.511H496.906V102.288ZM486.134 100.989H483.957V97.0439H486.134V100.989ZM481.613 92.9229C483.97 92.9033 486.043 92.861 487.834 92.7959C489.63 92.7308 491.352 92.5973 493 92.3955L493.117 93.958C491.411 94.238 489.624 94.4268 487.755 94.5244C485.887 94.6156 483.927 94.6579 481.877 94.6514L481.613 92.9229ZM494.835 96.79H490.851V95.2861H494.835V96.79ZM487.365 85.6279C488.218 85.6214 488.979 85.7484 489.65 86.0088C490.321 86.2692 490.838 86.6403 491.203 87.1221C491.574 87.5973 491.759 88.141 491.759 88.7529C491.759 89.3779 491.574 89.9215 491.203 90.3838C490.838 90.846 490.321 91.2074 489.65 91.4678C488.986 91.7217 488.224 91.8486 487.365 91.8486C486.499 91.8486 485.734 91.7217 485.07 91.4678C484.406 91.2074 483.888 90.846 483.517 90.3838C483.146 89.9215 482.96 89.3779 482.96 88.7529C482.96 88.141 483.146 87.5973 483.517 87.1221C483.888 86.6403 484.406 86.2692 485.07 86.0088C485.74 85.7484 486.505 85.6214 487.365 85.6279ZM487.365 87.2295C486.896 87.2295 486.486 87.2881 486.134 87.4053C485.783 87.5225 485.509 87.6982 485.314 87.9326C485.119 88.167 485.021 88.4404 485.021 88.7529C485.021 89.0719 485.119 89.3454 485.314 89.5732C485.509 89.8011 485.783 89.9769 486.134 90.1006C486.486 90.2178 486.896 90.2764 487.365 90.2764C487.821 90.2764 488.224 90.2178 488.576 90.1006C488.927 89.9769 489.201 89.8011 489.396 89.5732C489.591 89.3389 489.689 89.0654 489.689 88.7529C489.689 88.4404 489.591 88.167 489.396 87.9326C489.201 87.6982 488.927 87.5225 488.576 87.4053C488.224 87.2881 487.821 87.2295 487.365 87.2295ZM507.55 88.0596H499.845V86.2822H507.55V88.0596ZM504.386 94.7295H502.228V90.2959H504.386V94.7295ZM508.83 87.4443C508.823 88.3428 508.794 89.1794 508.742 89.9541C508.696 90.7223 508.585 91.5752 508.41 92.5127L506.261 92.3271C506.444 91.3896 506.561 90.5693 506.613 89.8662C506.665 89.1631 506.697 88.3688 506.71 87.4834V87.3174V86.2822H508.83V87.3174V87.4443ZM513.058 98.1865H510.832V84.9639H513.058V98.1865ZM515.343 92.2979H512.15V90.4717H515.343V92.2979ZM513.615 102.288H501.418V100.511H513.615V102.288ZM503.605 101.077H501.418V97.0146H503.605V101.077ZM498.791 93.9189C500.9 93.9124 502.863 93.8734 504.679 93.8018C506.496 93.7301 508.205 93.5804 509.806 93.3525L509.923 94.9248C508.283 95.2243 506.557 95.4229 504.748 95.5205C502.938 95.6117 501.017 95.6572 498.986 95.6572L498.791 93.9189ZM530.968 102.649H528.81V84.9639H530.968V102.649ZM518.781 96.6729C520.421 96.6794 521.912 96.6403 523.253 96.5557C524.595 96.4645 525.978 96.3018 527.404 96.0674L527.599 97.8447C526.18 98.0856 524.787 98.2516 523.419 98.3428C522.052 98.4274 520.506 98.4697 518.781 98.4697H517.238V96.6729H518.781ZM525.539 93.1182H519.474V97.3467H517.238V91.3994H523.332V88.2646H517.218V86.4971H525.539V93.1182Z" fill="black"/>
<path d="M24.0456 247.705H20.4518V245.937H24.0456V247.705ZM25.6276 252.031H23.4596V241.533H25.6276V252.031ZM19.6608 252.47C20.8978 252.47 21.9688 252.604 22.8737 252.871C23.7786 253.138 24.472 253.522 24.9538 254.023C25.4421 254.524 25.6862 255.126 25.6862 255.83C25.6862 256.533 25.4421 257.135 24.9538 257.636C24.472 258.138 23.7786 258.522 22.8737 258.789C21.9688 259.056 20.8978 259.192 19.6608 259.199C18.4173 259.192 17.3464 259.056 16.4479 258.789C15.5495 258.522 14.8561 258.138 14.3678 257.636C13.8861 257.135 13.6452 256.533 13.6452 255.83C13.6452 255.126 13.8861 254.524 14.3678 254.023C14.8561 253.522 15.5495 253.138 16.4479 252.871C17.3529 252.604 18.4238 252.47 19.6608 252.47ZM19.6608 254.13C18.834 254.13 18.1341 254.195 17.5612 254.326C16.9883 254.456 16.5521 254.648 16.2526 254.902C15.9531 255.156 15.8034 255.465 15.8034 255.83C15.8034 256.188 15.9531 256.494 16.2526 256.748C16.5521 256.995 16.9883 257.187 17.5612 257.324C18.1406 257.454 18.8405 257.519 19.6608 257.519C20.4811 257.519 21.181 257.454 21.7604 257.324C22.3398 257.187 22.776 256.995 23.069 256.748C23.3685 256.494 23.5182 256.188 23.5182 255.83C23.5182 255.465 23.3685 255.156 23.069 254.902C22.776 254.648 22.3398 254.456 21.7604 254.326C21.181 254.195 20.4811 254.13 19.6608 254.13ZM16.8971 244.57C16.8971 245.69 16.7051 246.741 16.321 247.724C15.9369 248.707 15.3704 249.57 14.6217 250.312C13.8796 251.054 12.9811 251.611 11.9264 251.982L10.7936 250.253C11.7116 249.941 12.4961 249.488 13.1471 248.896C13.7982 248.297 14.2897 247.626 14.6217 246.884C14.9538 246.142 15.1198 245.371 15.1198 244.57V243.31H16.8971V244.57ZM17.3268 244.55C17.3268 245.292 17.4831 246.005 17.7956 246.689C18.1146 247.366 18.5866 247.978 19.2116 248.525C19.8431 249.072 20.5983 249.495 21.4772 249.794L20.3932 251.513C19.3646 251.162 18.4889 250.638 17.7663 249.941C17.0436 249.238 16.4935 248.424 16.1159 247.5C15.7448 246.575 15.5592 245.592 15.5592 244.55V243.31H17.3268V244.55ZM20.9889 244.443H11.4382V242.675H20.9889V244.443ZM44.2702 257.06H28.1374V255.283H44.2702V257.06ZM37.2292 255.751H35.0905V251.318H37.2292V255.751ZM32.0827 245.595H40.2565V242.705H42.4147V251.835H29.9049V242.705H32.0827V245.595ZM40.2565 250.097V247.324H32.0827V250.097H40.2565ZM52.3171 249.462C54.2441 249.462 55.7611 249.433 56.8678 249.375C57.9811 249.309 59.0814 249.173 60.1686 248.964L60.4128 250.693C59.2799 250.888 58.1309 251.018 56.9655 251.083C55.8001 251.142 54.2507 251.171 52.3171 251.171H50.8913V249.462H52.3171ZM59.1628 244.335H53.0788V250.205H50.8913V242.568H59.1628V244.335ZM58.8014 247.724H52.3757V245.976H58.8014V247.724ZM64.1042 258.964H52.7077V252.695H64.1042V258.964ZM54.8561 257.216H61.9557V254.404H54.8561V257.216ZM64.1042 251.884H61.9362V241.533H64.1042V251.884ZM66.5749 247.558H63.4889V245.751H66.5749V247.558ZM72.5905 244.726C72.5905 245.716 72.4342 246.669 72.1217 247.587C71.8158 248.499 71.3535 249.316 70.735 250.039C70.1165 250.761 69.3581 251.315 68.4596 251.699L67.2975 250.029C68.0788 249.684 68.7396 249.225 69.28 248.652C69.8203 248.079 70.2207 247.457 70.4811 246.787C70.7415 246.11 70.875 245.423 70.8815 244.726V242.587H72.5905V244.726ZM72.9811 244.726C72.9811 245.41 73.1048 246.064 73.3522 246.689C73.6061 247.307 73.987 247.871 74.4948 248.378C75.0091 248.886 75.6406 249.287 76.3893 249.58L75.2272 251.24C74.3613 250.895 73.6322 250.393 73.0397 249.736C72.4473 249.072 72.0013 248.313 71.7018 247.46C71.4089 246.608 71.2656 245.696 71.2721 244.726V242.587H72.9811V244.726ZM82.5612 252.226H80.4909V241.552H82.5612V252.226ZM81.0964 247.734H78.069V245.947H81.0964V247.734ZM78.7331 252.138H76.7116V241.845H78.7331V252.138ZM82.5612 259.169H80.4128V254.824H70.4714V253.066H82.5612V259.169Z" fill="black"/>
<path d="M99.8795 87.4639C99.8795 88.499 99.5833 89.4463 98.9909 90.3057C98.4049 91.1585 97.5781 91.8747 96.5104 92.4541C95.4427 93.0335 94.222 93.4242 92.8483 93.626L92.028 91.9268C93.1999 91.7705 94.2383 91.4678 95.1432 91.0186C96.0482 90.5693 96.748 90.0355 97.2428 89.417C97.7376 88.792 97.985 88.141 97.985 87.4639V86.8584H99.8795V87.4639ZM100.485 87.4639C100.485 88.141 100.729 88.792 101.217 89.417C101.712 90.0355 102.412 90.5693 103.317 91.0186C104.222 91.4678 105.264 91.7705 106.442 91.9268L105.661 93.626C104.274 93.4242 103.044 93.0335 101.969 92.4541C100.902 91.8747 100.072 91.1585 99.4792 90.3057C98.8867 89.4463 98.5905 88.499 98.5905 87.4639V86.8584H100.485V87.4639ZM100.26 102.61H98.1217V96.0283H100.26V102.61ZM107.272 96.5557H91.1979V94.8076H107.272V96.5557ZM105.798 87.6689H92.653V85.96H105.798V87.6689ZM122.809 94.7197H110.426V92.9912H122.809V94.7197ZM124.616 100.53H108.483V98.7432H124.616V100.53ZM117.575 99.3584H115.436V93.7725H117.575V99.3584ZM122.663 88.0205H112.604V93.7822H110.426V86.2822H122.663V88.0205ZM131.823 87.5908C131.823 88.7757 131.631 89.876 131.247 90.8916C130.863 91.9007 130.293 92.7796 129.538 93.5283C128.789 94.277 127.878 94.8402 126.803 95.2178L125.641 93.46C126.592 93.1475 127.396 92.695 128.053 92.1025C128.717 91.5101 129.212 90.8298 129.538 90.0615C129.87 89.2868 130.039 88.4632 130.046 87.5908V85.9209H131.823V87.5908ZM132.223 87.4932C132.223 88.3135 132.38 89.085 132.692 89.8076C133.005 90.5238 133.47 91.1618 134.089 91.7217C134.714 92.2751 135.475 92.695 136.374 92.9814L135.202 94.6709C134.18 94.3063 133.314 93.7757 132.604 93.0791C131.901 92.3825 131.37 91.5622 131.012 90.6182C130.654 89.6676 130.475 88.626 130.475 87.4932V85.9209H132.223V87.4932ZM140.544 95.3447H138.376V84.9639H140.544V95.3447ZM134.577 95.8232C135.814 95.8232 136.885 95.9567 137.79 96.2236C138.695 96.484 139.388 96.8714 139.87 97.3857C140.358 97.8936 140.602 98.5055 140.602 99.2217C140.602 99.9313 140.358 100.537 139.87 101.038C139.388 101.546 138.695 101.93 137.79 102.19C136.885 102.457 135.814 102.591 134.577 102.591C133.333 102.591 132.262 102.457 131.364 102.19C130.465 101.93 129.772 101.546 129.284 101.038C128.802 100.537 128.561 99.9313 128.561 99.2217C128.561 98.512 128.802 97.9001 129.284 97.3857C129.772 96.8714 130.465 96.484 131.364 96.2236C132.262 95.9567 133.333 95.8232 134.577 95.8232ZM134.577 97.5127C133.75 97.5127 133.05 97.5778 132.477 97.708C131.904 97.8382 131.468 98.0303 131.169 98.2842C130.869 98.5381 130.719 98.8506 130.719 99.2217C130.719 99.5798 130.869 99.8825 131.169 100.13C131.468 100.377 131.904 100.566 132.477 100.696C133.057 100.826 133.756 100.892 134.577 100.892C135.397 100.892 136.094 100.826 136.667 100.696C137.246 100.566 137.686 100.377 137.985 100.13C138.284 99.8825 138.434 99.5798 138.434 99.2217C138.434 98.8506 138.284 98.5381 137.985 98.2842C137.692 98.0303 137.256 97.8382 136.676 97.708C136.097 97.5778 135.397 97.5127 134.577 97.5127ZM138.717 90.1689H134.86V88.3916H138.717V90.1689Z" fill="black"/>
<path d="M280.585 483.924H271.953V482.186H280.585V483.924ZM276.288 484.852C277.031 484.852 277.695 485.028 278.281 485.379C278.867 485.731 279.322 486.219 279.648 486.844C279.98 487.469 280.149 488.179 280.156 488.973C280.149 489.774 279.98 490.49 279.648 491.122C279.322 491.747 278.867 492.238 278.281 492.596C277.695 492.954 277.031 493.133 276.288 493.133C275.559 493.133 274.898 492.954 274.306 492.596C273.72 492.238 273.261 491.747 272.929 491.122C272.604 490.49 272.441 489.774 272.441 488.973C272.441 488.185 272.607 487.479 272.939 486.854C273.271 486.222 273.73 485.731 274.316 485.379C274.902 485.028 275.559 484.852 276.288 484.852ZM276.288 486.659C275.911 486.659 275.576 486.756 275.283 486.952C274.996 487.14 274.768 487.411 274.599 487.762C274.436 488.107 274.358 488.511 274.365 488.973C274.358 489.442 274.436 489.849 274.599 490.194C274.768 490.532 274.996 490.796 275.283 490.985C275.576 491.174 275.911 491.268 276.288 491.268C276.666 491.268 277.001 491.174 277.294 490.985C277.594 490.796 277.825 490.532 277.988 490.194C278.157 489.849 278.242 489.442 278.242 488.973C278.242 488.511 278.157 488.107 277.988 487.762C277.825 487.411 277.594 487.14 277.294 486.952C277.001 486.756 276.666 486.659 276.288 486.659ZM287.158 497.01H285.087V479.374H287.158V497.01ZM285.771 488.387H282.675V486.639H285.771V488.387ZM283.369 496.219H281.328V479.754H283.369V496.219ZM277.363 483.27H275.224V479.881H277.363V483.27ZM304.052 488.309H301.884V479.374H304.052V488.309ZM298.437 480.135C298.437 481.646 298.124 482.971 297.499 484.11C296.881 485.249 295.963 486.2 294.745 486.961C293.535 487.723 292.037 488.306 290.253 488.709L289.511 486.932C290.982 486.62 292.206 486.19 293.183 485.643C294.16 485.096 294.885 484.455 295.361 483.719C295.836 482.984 296.077 482.163 296.083 481.258V480.135H298.437ZM296.992 481.883H290.468V480.135H296.992V481.883ZM302.167 483.387H297.763V481.717H302.167V483.387ZM302.07 486.786H297.626V485.116H302.07V486.786ZM304.052 493.651H294.619V496.092H292.46V492.03H301.865V490.711H292.421V488.993H304.052V493.651ZM304.501 496.854H292.46V495.106H304.501V496.854ZM320.829 485.721H308.642V483.963H320.829V485.721ZM310.81 484.764H308.642V479.676H310.81V484.764ZM322.665 489.188H306.562V487.42H322.665V489.188ZM314.579 490.458C315.849 490.458 316.939 490.584 317.851 490.838C318.762 491.086 319.462 491.454 319.951 491.942C320.445 492.43 320.693 493.016 320.693 493.7C320.693 494.39 320.445 494.976 319.951 495.458C319.462 495.946 318.762 496.317 317.851 496.571C316.939 496.825 315.849 496.952 314.579 496.952C313.297 496.952 312.197 496.825 311.279 496.571C310.361 496.317 309.654 495.946 309.16 495.458C308.671 494.976 308.427 494.39 308.427 493.7C308.427 493.016 308.671 492.43 309.16 491.942C309.654 491.454 310.361 491.086 311.279 490.838C312.197 490.584 313.297 490.458 314.579 490.458ZM314.579 492.157C313.714 492.157 312.991 492.212 312.411 492.323C311.832 492.433 311.389 492.606 311.083 492.84C310.784 493.075 310.637 493.361 310.644 493.7C310.637 494.038 310.784 494.325 311.083 494.559C311.389 494.793 311.835 494.976 312.421 495.106C313.007 495.23 313.727 495.292 314.579 495.292C315.419 495.292 316.132 495.23 316.718 495.106C317.304 494.976 317.75 494.793 318.056 494.559C318.362 494.325 318.515 494.038 318.515 493.7C318.515 493.361 318.365 493.075 318.066 492.84C317.766 492.606 317.324 492.433 316.738 492.323C316.152 492.212 315.432 492.157 314.579 492.157ZM325.849 487.918C327.652 487.925 329.055 487.902 330.058 487.85C331.067 487.792 332.063 487.671 333.046 487.489L333.251 489.237C332.249 489.406 331.23 489.517 330.195 489.569C329.16 489.621 327.711 489.647 325.849 489.647H324.55V487.918H325.849ZM332.275 485.741H326.699V489.022H324.55V484.129H330.107V482.137H324.521V480.428H332.275V485.741ZM338.622 490.252H336.454V479.393H338.622V490.252ZM336.884 483.631H333.339V481.893H336.884V483.631ZM336.884 487.352H333.339V485.604H336.884V487.352ZM338.622 497.04H336.454V492.831H326.552V491.083H338.622V497.04Z" fill="black"/>
<path d="M156.209 98.664L305.373 37.0505L454.536 98.664L516.318 247.402L454.536 396.141L305.373 457.754L156.209 396.141L94.4194 247.402L156.209 98.664Z" fill="#EEF4F6" stroke="white" stroke-width="2"/>
<path d="M182.576 124.012L305.966 72.906L429.348 124.012L480.462 247.402L429.348 370.785L305.966 421.899L182.576 370.785L131.47 247.402L182.576 124.012Z" fill="#EEF4F6" stroke="white" stroke-width="2"/>
<path d="M208.778 150.214L305.966 109.957L403.155 150.214L443.412 247.402L403.155 344.591L305.966 384.848L208.778 344.591L168.521 247.402L208.778 150.214Z" fill="#EEF4F6" stroke="white" stroke-width="2"/>
<path d="M234.978 176.414L305.97 147.007L376.963 176.414L406.362 247.406L376.963 318.399L305.97 347.798L234.978 318.399L205.571 247.406L234.978 176.414Z" fill="#EEF4F6" stroke="white" stroke-width="2"/>
<path d="M260.157 201.594L305.368 182.863L350.579 201.594L369.311 246.805L350.579 292.016L305.368 310.747L260.157 292.016L241.426 246.805L260.157 201.594Z" fill="#EEF4F6" stroke="white" stroke-width="2"/>
<g clip-path="url(#clip0_1213_4735)">
<path d="M427.039 124.087L513.928 245.867L377.25 318.916C377.084 319.005 376.94 319.132 376.832 319.287L306.489 419.953L210.001 344.922L174.874 246.285L209.997 149.17L306.59 74.7883L427.039 124.087Z" fill="#5993F1" fill-opacity="0.2" stroke="#5993F1" stroke-width="2.4" stroke-linejoin="round"/>
<path d="M451.986 391.439C452.537 391.428 452.976 390.971 452.964 390.418L452.781 381.412C452.77 380.86 452.314 380.421 451.762 380.432C451.21 380.443 450.772 380.9 450.783 381.453L450.946 389.458L442.955 389.62C442.403 389.632 441.965 390.089 441.976 390.641C441.987 391.194 442.444 391.633 442.995 391.622L451.986 391.439ZM379.365 321.998L380.863 323.438L382.247 321.995L380.749 320.554L379.365 321.998ZM383.859 326.32L386.855 329.202L388.239 327.758L385.243 324.876L383.859 326.32ZM389.851 332.084L392.848 334.966L394.232 333.522L391.235 330.64L389.851 332.084ZM395.844 337.847L398.84 340.729L400.224 339.285L397.228 336.404L395.844 337.847ZM401.836 343.611L404.832 346.493L406.216 345.049L403.22 342.167L401.836 343.611ZM407.829 349.375L410.825 352.256L412.209 350.812L409.213 347.931L407.829 349.375ZM413.821 355.138L416.817 358.02L418.201 356.576L415.205 353.694L413.821 355.138ZM419.813 360.902L422.81 363.783L424.194 362.34L421.197 359.458L419.813 360.902ZM425.806 366.665L428.802 369.547L430.186 368.103L427.19 365.221L425.806 366.665ZM431.798 372.429L434.794 375.311L436.178 373.867L433.182 370.985L431.798 372.429ZM437.791 378.192L440.787 381.074L442.171 379.63L439.175 376.749L437.791 378.192ZM443.783 383.956L446.779 386.838L448.163 385.394L445.167 382.512L443.783 383.956ZM449.775 389.719L451.273 391.16L452.657 389.717L451.159 388.276L449.775 389.719Z" fill="#5993F1"/>
</g>
<path d="M100.379 245.566C99.9886 245.956 99.9886 246.589 100.379 246.98L106.743 253.344C107.134 253.734 107.767 253.734 108.157 253.344C108.548 252.953 108.548 252.32 108.157 251.929L102.5 246.273L108.157 240.616C108.548 240.225 108.548 239.592 108.157 239.201C107.767 238.811 107.133 238.811 106.743 239.201L100.379 245.566ZM101.086 247.273L102.986 247.273L102.986 245.273L101.086 245.273L101.086 247.273ZM106.787 247.273L110.587 247.272L110.587 245.272L106.787 245.273L106.787 247.273ZM114.387 247.272L118.187 247.272L118.187 245.272L114.387 245.272L114.387 247.272ZM121.988 247.272L125.788 247.272L125.788 245.272L121.988 245.272L121.988 247.272ZM129.588 247.272L133.388 247.272L133.388 245.272L129.588 245.272L129.588 247.272ZM137.189 247.272L140.989 247.272L140.989 245.272L137.189 245.272L137.189 247.272ZM144.789 247.272L148.589 247.272L148.589 245.272L144.789 245.272L144.789 247.272ZM152.39 247.272L156.19 247.271L156.19 245.271L152.39 245.272L152.39 247.272ZM159.99 247.271L163.79 247.271L163.79 245.271L159.99 245.271L159.99 247.271ZM167.591 247.271L169.491 247.271L169.491 245.271L167.591 245.271L167.591 247.271Z" fill="#5993F1"/>
<defs>
<clipPath id="clip0_1213_4735">
<rect width="362.14" height="348.993" fill="white" transform="translate(156.569 72.906)"/>
</clipPath>
</defs>
</svg>
